NotoSerifDisplay-CondensedBoldItalic.ufo
<glyph name="ampersand" format="2">
  <advance width="702"/>
  <unicode hex="0026"/>
  <outline>
    <contour>
      <point x="254" y="-10" type="curve" smooth="yes"/>
      <point x="337" y="-10"/>
      <point x="382" y="27"/>
      <point x="419" y="59" type="curve"/>
      <point x="447" y="0" type="line"/>
      <point x="640" y="0" type="line"/>
      <point x="642" y="10" type="line"/>
      <point x="637" y="10" type="line" smooth="yes"/>
      <point x="627" y="10"/>
      <point x="617" y="12"/>
      <point x="590" y="57" type="curve" smooth="yes"/>
      <point x="516" y="183" type="line"/>
      <point x="538" y="223"/>
      <point x="565" y="286"/>
      <point x="609" y="377" type="curve" smooth="yes"/>
      <point x="627" y="415"/>
      <point x="645" y="420"/>
      <point x="681" y="420" type="curve" smooth="yes"/>
      <point x="691" y="420" type="line"/>
      <point x="692" y="430" type="line"/>
      <point x="519" y="430" type="line"/>
      <point x="509" y="392" type="line" smooth="yes"/>
      <point x="499" y="352"/>
      <point x="484" y="293"/>
      <point x="472" y="251" type="curve"/>
      <point x="373" y="433" type="line"/>
      <point x="491" y="488"/>
      <point x="539" y="517"/>
      <point x="539" y="594" type="curve" smooth="yes"/>
      <point x="539" y="667"/>
      <point x="484" y="724"/>
      <point x="381" y="724" type="curve" smooth="yes"/>
      <point x="268" y="724"/>
      <point x="184" y="666"/>
      <point x="184" y="552" type="curve" smooth="yes"/>
      <point x="184" y="479"/>
      <point x="213" y="436"/>
      <point x="242" y="382" type="curve"/>
      <point x="135" y="352"/>
      <point x="33" y="302"/>
      <point x="33" y="179" type="curve" smooth="yes"/>
      <point x="33" y="69"/>
      <point x="94" y="-10"/>
    </contour>
    <contour>
      <point x="271" y="0" type="curve" smooth="yes"/>
      <point x="214" y="0"/>
      <point x="188" y="47"/>
      <point x="188" y="180" type="curve" smooth="yes"/>
      <point x="188" y="281"/>
      <point x="209" y="336"/>
      <point x="246" y="372" type="curve"/>
      <point x="392" y="105" type="line"/>
      <point x="365" y="46"/>
      <point x="332" y="0"/>
    </contour>
    <contour>
      <point x="369" y="442" type="curve" smooth="yes"/>
      <point x="348" y="475"/>
      <point x="318" y="530"/>
      <point x="318" y="593" type="curve" smooth="yes"/>
      <point x="318" y="669"/>
      <point x="343" y="714"/>
      <point x="381" y="714" type="curve" smooth="yes"/>
      <point x="413" y="714"/>
      <point x="429" y="669"/>
      <point x="429" y="603" type="curve" smooth="yes"/>
      <point x="429" y="543"/>
      <point x="420" y="471"/>
    </contour>
  </outline>
</glyph>
<glyph name="parenleft" format="2">
  <advance width="367"/>
  <unicode hex="0028"/>
  <outline>
    <contour>
      <point x="258" y="-147" type="curve"/>
      <point x="259" y="-137" type="line"/>
      <point x="222" y="-95"/>
      <point x="190" y="-10"/>
      <point x="190" y="208" type="curve" smooth="yes"/>
      <point x="190" y="321"/>
      <point x="240" y="658"/>
      <point x="420" y="771" type="curve"/>
      <point x="421" y="781" type="line"/>
      <point x="148" y="726"/>
      <point x="31" y="493"/>
      <point x="31" y="233" type="curve" smooth="yes"/>
      <point x="31" y="42"/>
      <point x="108" y="-93"/>
    </contour>
  </outline>
</glyph>
<glyph name="zero" format="2">
  <advance width="515"/>
  <unicode hex="0030"/>
  <outline>
    <contour>
      <point x="221" y="-11" type="curve" smooth="yes"/>
      <point x="446" y="-11"/>
      <point x="510" y="284"/>
      <point x="510" y="481" type="curve" smooth="yes"/>
      <point x="510" y="664"/>
      <point x="435" y="725"/>
      <point x="334" y="725" type="curve" smooth="yes"/>
      <point x="116" y="725"/>
      <point x="42" y="432"/>
      <point x="42" y="245" type="curve" smooth="yes"/>
      <point x="42" y="70"/>
      <point x="113" y="-11"/>
    </contour>
    <contour>
      <point x="227" y="-1" type="curve"/>
      <point x="198" y="-1"/>
      <point x="179" y="29"/>
      <point x="179" y="97" type="curve" smooth="yes"/>
      <point x="179" y="352"/>
      <point x="257" y="715"/>
      <point x="340" y="715" type="curve" smooth="yes"/>
      <point x="363" y="715"/>
      <point x="379" y="680"/>
      <point x="379" y="604" type="curve" smooth="yes"/>
      <point x="379" y="411"/>
      <point x="311" y="-1"/>
    </contour>
  </outline>
</glyph>
<glyph name="L" format="2">
  <advance width="539"/>
  <unicode hex="004C"/>
  <anchor x="197" y="0" name="bottom"/>
  <anchor x="292" y="357" name="center"/>
  <anchor x="271" y="714" name="top"/>
  <anchor x="533" y="714" name="topright"/>
  <outline>
    <contour>
      <point x="-45" y="0" type="line"/>
      <point x="470" y="0" type="line"/>
      <point x="520" y="226" type="line"/>
      <point x="510" y="226" type="line"/>
      <point x="499" y="181" type="line" smooth="yes"/>
      <point x="478" y="94"/>
      <point x="423" y="10"/>
      <point x="338" y="10" type="curve" smooth="yes"/>
      <point x="204" y="10" type="line"/>
      <point x="335" y="646" type="line" smooth="yes"/>
      <point x="345" y="696"/>
      <point x="378" y="704"/>
      <point x="414" y="704" type="curve" smooth="yes"/>
      <point x="425" y="704" type="line"/>
      <point x="427" y="714" type="line"/>
      <point x="105" y="714" type="line"/>
      <point x="103" y="704" type="line"/>
      <point x="114" y="704" type="line" smooth="yes"/>
      <point x="148" y="704"/>
      <point x="171" y="700"/>
      <point x="171" y="674" type="curve" smooth="yes"/>
      <point x="171" y="665"/>
      <point x="168" y="653"/>
      <point x="164" y="636" type="curve" smooth="yes"/>
      <point x="44" y="65" type="line" smooth="yes"/>
      <point x="34" y="17"/>
      <point x="2" y="10"/>
      <point x="-31" y="10" type="curve" smooth="yes"/>
      <point x="-42" y="10" type="line"/>
    </contour>
  </outline>
</glyph>
<glyph name="W" format="2">
  <advance width="887"/>
  <unicode hex="0057"/>
  <anchor x="387" y="0" name="bottom"/>
  <anchor x="589" y="714" name="top"/>
  <anchor x="1042" y="714" name="topright"/>
  <outline>
    <contour>
      <point x="178" y="0" type="line"/>
      <point x="306" y="0" type="line"/>
      <point x="492" y="503" type="line"/>
      <point x="558" y="0" type="line"/>
      <point x="667" y="0" type="line"/>
      <point x="891" y="633" type="line" smooth="yes"/>
      <point x="912" y="691"/>
      <point x="927" y="704"/>
      <point x="963" y="704" type="curve" smooth="yes"/>
      <point x="1008" y="704" type="line"/>
      <point x="1010" y="714" type="line"/>
      <point x="785" y="714" type="line"/>
      <point x="783" y="704" type="line"/>
      <point x="843" y="704" type="line" smooth="yes"/>
      <point x="873" y="704"/>
      <point x="890" y="701"/>
      <point x="890" y="680" type="curve" smooth="yes"/>
      <point x="890" y="672"/>
      <point x="886" y="650"/>
      <point x="879" y="631" type="curve" smooth="yes"/>
      <point x="790" y="376" type="line" smooth="yes"/>
      <point x="768" y="313"/>
      <point x="716" y="171"/>
      <point x="701" y="121" type="curve"/>
      <point x="701" y="152"/>
      <point x="690" y="268"/>
      <point x="683" y="312" type="curve" smooth="yes"/>
      <point x="624" y="707" type="line"/>
      <point x="555" y="707" type="line"/>
      <point x="371" y="204" type="line" smooth="yes"/>
      <point x="357" y="166"/>
      <point x="344" y="133"/>
      <point x="333" y="98" type="curve"/>
      <point x="333" y="145"/>
      <point x="331" y="349"/>
      <point x="330" y="381" type="curve" smooth="yes"/>
      <point x="325" y="621" type="line" smooth="yes"/>
      <point x="325" y="642"/>
      <point x="325" y="653"/>
      <point x="325" y="665" type="curve" smooth="yes"/>
      <point x="325" y="700"/>
      <point x="357" y="704"/>
      <point x="392" y="704" type="curve" smooth="yes"/>
      <point x="413" y="704" type="line"/>
      <point x="415" y="714" type="line"/>
      <point x="106" y="714" type="line"/>
      <point x="103" y="704" type="line"/>
      <point x="114" y="704" type="line" smooth="yes"/>
      <point x="137" y="704"/>
      <point x="164" y="699"/>
      <point x="165" y="658" type="curve" smooth="yes"/>
    </contour>
  </outline>
</glyph>
<glyph name="l" format="2">
  <advance width="331"/>
  <unicode hex="006C"/>
  <anchor x="110" y="0" name="bottom"/>
  <anchor x="224" y="268" name="center"/>
  <anchor x="272" y="760" name="top"/>
  <anchor x="415" y="760" name="topright"/>
  <outline>
    <contour>
      <point x="165" y="-10" type="curve" smooth="yes"/>
      <point x="252" y="-10"/>
      <point x="277" y="16"/>
      <point x="311" y="56" type="curve"/>
      <point x="304" y="65" type="line"/>
      <point x="283" y="41"/>
      <point x="266" y="21"/>
      <point x="236" y="21" type="curve" smooth="yes"/>
      <point x="214" y="21"/>
      <point x="204" y="32"/>
      <point x="204" y="62" type="curve" smooth="yes"/>
      <point x="204" y="77"/>
      <point x="207" y="107"/>
      <point x="216" y="147" type="curve" smooth="yes"/>
      <point x="351" y="760" type="line"/>
      <point x="115" y="760" type="line"/>
      <point x="113" y="750" type="line"/>
      <point x="127" y="750" type="line" smooth="yes"/>
      <point x="165" y="750"/>
      <point x="168" y="734"/>
      <point x="168" y="716" type="curve" smooth="yes"/>
      <point x="168" y="704"/>
      <point x="164" y="684"/>
      <point x="160" y="667" type="curve" smooth="yes"/>
      <point x="64" y="217" type="line" smooth="yes"/>
      <point x="51" y="154"/>
      <point x="46" y="124"/>
      <point x="46" y="99" type="curve" smooth="yes"/>
      <point x="46" y="26"/>
      <point x="90" y="-10"/>
    </contour>
  </outline>
</glyph>
<glyph name="x" format="2">
  <advance width="533"/>
  <unicode hex="0078"/>
  <anchor x="209" y="0" name="bottom"/>
  <anchor x="323" y="536" name="top"/>
  <anchor x="571" y="536" name="topright"/>
  <outline>
    <contour>
      <point x="-26" y="0" type="line"/>
      <point x="51" y="0" type="line"/>
      <point x="209" y="218" type="line"/>
      <point x="269" y="0" type="line"/>
      <point x="476" y="0" type="line"/>
      <point x="478" y="10" type="line"/>
      <point x="471" y="10" type="line" smooth="yes"/>
      <point x="456" y="10"/>
      <point x="440" y="14"/>
      <point x="419" y="80" type="curve" smooth="yes"/>
      <point x="338" y="331" type="line"/>
      <point x="428" y="459" type="line" smooth="yes"/>
      <point x="468" y="516"/>
      <point x="498" y="526"/>
      <point x="540" y="526" type="curve" smooth="yes"/>
      <point x="549" y="526" type="line"/>
      <point x="551" y="536" type="line"/>
      <point x="468" y="536" type="line"/>
      <point x="333" y="340" type="line"/>
      <point x="275" y="536" type="line"/>
      <point x="82" y="536" type="line"/>
      <point x="80" y="526" type="line"/>
      <point x="90" y="526" type="line" smooth="yes"/>
      <point x="110" y="526"/>
      <point x="117" y="516"/>
      <point x="126" y="488" type="curve" smooth="yes"/>
      <point x="206" y="229" type="line"/>
      <point x="81" y="61" type="line" smooth="yes"/>
      <point x="53" y="23"/>
      <point x="29" y="10"/>
      <point x="-18" y="10" type="curve" smooth="yes"/>
      <point x="-25" y="10" type="line"/>
    </contour>
  </outline>
</glyph>
<glyph name="z" format="2">
  <advance width="509"/>
  <unicode hex="007A"/>
  <anchor x="199" y="0" name="bottom"/>
  <anchor x="303" y="536" name="top"/>
  <anchor x="538" y="536" name="topright"/>
  <outline>
    <contour>
      <point x="-7" y="0" type="line"/>
      <point x="432" y="0" type="line"/>
      <point x="473" y="195" type="line"/>
      <point x="465" y="195" type="line"/>
      <point x="438" y="111" type="line" smooth="yes"/>
      <point x="417" y="45"/>
      <point x="389" y="10"/>
      <point x="307" y="10" type="curve" smooth="yes"/>
      <point x="171" y="10" type="line"/>
      <point x="531" y="526" type="line"/>
      <point x="533" y="536" type="line"/>
      <point x="120" y="536" type="line"/>
      <point x="78" y="359" type="line"/>
      <point x="87" y="359" type="line"/>
      <point x="102" y="406" type="line" smooth="yes"/>
      <point x="131" y="498"/>
      <point x="171" y="526"/>
      <point x="263" y="526" type="curve" smooth="yes"/>
      <point x="352" y="526" type="line"/>
      <point x="-5" y="10" type="line"/>
    </contour>
  </outline>
</glyph>
<glyph name="ordfeminine" format="2">
  <advance width="405"/>
  <unicode hex="00AA"/>
  <anchor x="222" y="381" name="bottom"/>
  <anchor x="294" y="722" name="top"/>
  <outline>
    <contour>
      <point x="161" y="381" type="curve" smooth="yes"/>
      <point x="216" y="381"/>
      <point x="259" y="432"/>
      <point x="278" y="504" type="curve"/>
      <point x="281" y="504" type="line"/>
      <point x="280" y="490"/>
      <point x="278" y="457"/>
      <point x="278" y="446" type="curve" smooth="yes"/>
      <point x="278" y="404"/>
      <point x="304" y="381"/>
      <point x="346" y="381" type="curve" smooth="yes"/>
      <point x="395" y="381"/>
      <point x="425" y="409"/>
      <point x="439" y="427" type="curve"/>
      <point x="434" y="435" type="line"/>
      <point x="422" y="422"/>
      <point x="408" y="405"/>
      <point x="388" y="405" type="curve" smooth="yes"/>
      <point x="373" y="405"/>
      <point x="367" y="414"/>
      <point x="367" y="435" type="curve" smooth="yes"/>
      <point x="367" y="445"/>
      <point x="368" y="455"/>
      <point x="376" y="498" type="curve" smooth="yes"/>
      <point x="416" y="712" type="line"/>
      <point x="405" y="712" type="line"/>
      <point x="328" y="698" type="line"/>
      <point x="312" y="713"/>
      <point x="295" y="719"/>
      <point x="278" y="719" type="curve" smooth="yes"/>
      <point x="133" y="719"/>
      <point x="75" y="589"/>
      <point x="75" y="496" type="curve" smooth="yes"/>
      <point x="75" y="432"/>
      <point x="102" y="381"/>
    </contour>
    <contour>
      <point x="213" y="419" type="curve" smooth="yes"/>
      <point x="201" y="419"/>
      <point x="188" y="429"/>
      <point x="188" y="489" type="curve" smooth="yes"/>
      <point x="188" y="588"/>
      <point x="224" y="708"/>
      <point x="283" y="708" type="curve" smooth="yes"/>
      <point x="292" y="708"/>
      <point x="307" y="705"/>
      <point x="317" y="694" type="curve"/>
      <point x="273" y="514" type="line" smooth="yes"/>
      <point x="265" y="483"/>
      <point x="239" y="419"/>
    </contour>
  </outline>
</glyph>
<glyph name="eng" format="2">
  <advance width="598"/>
  <unicode hex="014B"/>
  <anchor x="191" y="-240" name="bottom"/>
  <anchor x="356" y="536" name="top"/>
  <anchor x="652" y="536" name="topright"/>
  <outline>
    <contour>
      <point x="245" y="-240" type="curve" smooth="yes"/>
      <point x="350" y="-240"/>
      <point x="426" y="-185"/>
      <point x="464" y="-8" type="curve" smooth="yes"/>
      <point x="533" y="314" type="line" smooth="yes"/>
      <point x="541" y="349"/>
      <point x="548" y="394"/>
      <point x="548" y="429" type="curve" smooth="yes"/>
      <point x="548" y="491"/>
      <point x="519" y="546"/>
      <point x="432" y="546" type="curve" smooth="yes"/>
      <point x="356" y="546"/>
      <point x="312" y="518"/>
      <point x="275" y="417" type="curve"/>
      <point x="273" y="417" type="line"/>
      <point x="288" y="536" type="line"/>
      <point x="75" y="536" type="line"/>
      <point x="74" y="526" type="line"/>
      <point x="91" y="526" type="line" smooth="yes"/>
      <point x="123" y="526"/>
      <point x="125" y="514"/>
      <point x="125" y="497" type="curve" smooth="yes"/>
      <point x="125" y="483"/>
      <point x="122" y="462"/>
      <point x="119" y="446" type="curve" smooth="yes"/>
      <point x="26" y="0" type="line"/>
      <point x="191" y="0" type="line"/>
      <point x="260" y="332" type="line" smooth="yes"/>
      <point x="277" y="414"/>
      <point x="312" y="508"/>
      <point x="360" y="508" type="curve" smooth="yes"/>
      <point x="385" y="508"/>
      <point x="386" y="476"/>
      <point x="386" y="452" type="curve" smooth="yes"/>
      <point x="386" y="420"/>
      <point x="377" y="370"/>
      <point x="372" y="345" type="curve" smooth="yes"/>
      <point x="280" y="-92" type="line" smooth="yes"/>
      <point x="260" y="-186"/>
      <point x="243" y="-222"/>
      <point x="200" y="-222" type="curve" smooth="yes"/>
      <point x="187" y="-222"/>
      <point x="165" y="-218"/>
      <point x="156" y="-215" type="curve"/>
      <point x="153" y="-225" type="line"/>
      <point x="187" y="-237"/>
      <point x="209" y="-240"/>
    </contour>
  </outline>
</glyph>
<glyph name="uni01E5" format="2">
  <advance width="512"/>
  <unicode hex="01E5"/>
  <anchor x="154" y="-240" name="bottom"/>
  <anchor x="329" y="581" name="top"/>
  <anchor x="594" y="536" name="topright"/>
  <outline>
    <contour>
      <point x="152" y="-111" type="line"/>
      <point x="484" y="-111" type="line"/>
      <point x="486" y="-101" type="line"/>
      <point x="154" y="-101" type="line"/>
    </contour>
    <component base="g" xOffset="16"/>
  </outline>
</glyph>
<glyph name="uni023C" format="2">
  <advance width="491"/>
  <unicode hex="023C"/>
  <anchor x="182" y="-152" name="bottom"/>
  <anchor x="376" y="714" name="top"/>
  <anchor x="506" y="536" name="topright"/>
  <outline>
    <contour>
      <point x="71" y="-138" type="line"/>
      <point x="83" y="-138" type="line"/>
      <point x="482" y="714" type="line"/>
      <point x="470" y="714" type="line"/>
    </contour>
    <component base="c" xOffset="10"/>
  </outline>
</glyph>
<glyph name="uni0249" format="2">
  <advance width="328"/>
  <unicode hex="0249"/>
  <anchor x="48" y="-240" name="bottom"/>
  <anchor x="263" y="773" name="top"/>
  <anchor x="398" y="773" name="topright"/>
  <outline>
    <contour>
      <point x="8" y="275" type="line"/>
      <point x="323" y="275" type="line"/>
      <point x="325" y="285" type="line"/>
      <point x="10" y="285" type="line"/>
    </contour>
    <component base="j"/>
  </outline>
</glyph>
<glyph name="uni024C" format="2">
  <advance width="609"/>
  <unicode hex="024C"/>
  <anchor x="238" y="0" name="bottom"/>
  <anchor x="390" y="714" name="top"/>
  <anchor x="661" y="714" name="topright"/>
  <outline>
    <contour>
      <point x="32" y="333" type="line"/>
      <point x="170" y="333" type="line"/>
      <point x="172" y="343" type="line"/>
      <point x="34" y="343" type="line"/>
    </contour>
    <component base="R"/>
  </outline>
</glyph>
<glyph name="uni024D" format="2">
  <advance width="509"/>
  <unicode hex="024D"/>
  <anchor x="192" y="0" name="bottom"/>
  <anchor x="306" y="536" name="top"/>
  <anchor x="536" y="536" name="topright"/>
  <outline>
    <contour>
      <point x="6" y="288" type="line"/>
      <point x="357" y="288" type="line"/>
      <point x="359" y="298" type="line"/>
      <point x="8" y="298" type="line"/>
    </contour>
    <component base="r" xOffset="-7"/>
  </outline>
</glyph>
<glyph name="eshcurl" format="2">
  <advance width="420"/>
  <unicode hex="0286"/>
  <anchor x="93" y="-240" name="bottom"/>
  <anchor x="308" y="770" name="top"/>
  <outline>
    <contour>
      <point x="-38" y="-240" type="curve" smooth="yes"/>
      <point x="66" y="-240"/>
      <point x="132" y="-181"/>
      <point x="177" y="-89" type="curve"/>
      <point x="205" y="-119"/>
      <point x="226" y="-159"/>
      <point x="237" y="-215" type="curve"/>
      <point x="246" y="-213" type="line"/>
      <point x="236" y="-153"/>
      <point x="214" y="-109"/>
      <point x="183" y="-77" type="curve"/>
      <point x="209" y="-21"/>
      <point x="228" y="47"/>
      <point x="243" y="121" type="curve" smooth="yes"/>
      <point x="354" y="658" type="line" smooth="yes"/>
      <point x="371" y="739"/>
      <point x="381" y="760"/>
      <point x="405" y="760" type="curve" smooth="yes"/>
      <point x="431" y="760"/>
      <point x="427" y="665"/>
      <point x="427" y="593" type="curve"/>
      <point x="507" y="593"/>
      <point x="549" y="621"/>
      <point x="549" y="671" type="curve" smooth="yes"/>
      <point x="549" y="726"/>
      <point x="496" y="770"/>
      <point x="388" y="770" type="curve" smooth="yes"/>
      <point x="269" y="770"/>
      <point x="197" y="711"/>
      <point x="165" y="556" type="curve" smooth="yes"/>
      <point x="48" y="-12" type="line"/>
      <point x="30" y="-9"/>
      <point x="11" y="-8"/>
      <point x="-7" y="-8" type="curve" smooth="yes"/>
      <point x="-113" y="-8"/>
      <point x="-161" y="-50"/>
      <point x="-161" y="-130" type="curve" smooth="yes"/>
      <point x="-161" y="-203"/>
      <point x="-120" y="-240"/>
    </contour>
    <contour>
      <point x="-61" y="-230" type="curve" smooth="yes"/>
      <point x="-106" y="-230"/>
      <point x="-152" y="-202"/>
      <point x="-152" y="-128" type="curve" smooth="yes"/>
      <point x="-152" y="-54"/>
      <point x="-105" y="-18"/>
      <point x="-10" y="-18" type="curve" smooth="yes"/>
      <point x="8" y="-18"/>
      <point x="27" y="-19"/>
      <point x="46" y="-22" type="curve"/>
      <point x="21" y="-145"/>
      <point x="9" y="-230"/>
    </contour>
  </outline>
</glyph>
<glyph name="hungarumlaut" format="2">
  <advance width="459"/>
  <unicode hex="02DD"/>
  <outline>
    <contour>
      <point x="309" y="606" type="line"/>
      <point x="319" y="606" type="line"/>
      <point x="376" y="642"/>
      <point x="487" y="725"/>
      <point x="524" y="760" type="curve"/>
      <point x="525" y="766" type="line"/>
      <point x="403" y="766" type="line"/>
      <point x="382" y="719"/>
      <point x="342" y="655"/>
      <point x="310" y="611" type="curve"/>
    </contour>
    <contour>
      <point x="112" y="606" type="line"/>
      <point x="122" y="606" type="line"/>
      <point x="182" y="642"/>
      <point x="286" y="721"/>
      <point x="327" y="760" type="curve"/>
      <point x="328" y="766" type="line"/>
      <point x="206" y="766" type="line"/>
      <point x="181" y="717"/>
      <point x="147" y="660"/>
      <point x="113" y="611" type="curve"/>
    </contour>
  </outline>
</glyph>
<glyph name="nottildeabovecomb" format="2">
  <unicode hex="034A"/>
  <anchor x="57" y="536" name="_top"/>
  <anchor x="115" y="808" name="top"/>
  <outline>
    <contour>
      <point x="18" y="581" type="line"/>
      <point x="60" y="640" type="line"/>
      <point x="84" y="623"/>
      <point x="107" y="606"/>
      <point x="138" y="606" type="curve" smooth="yes"/>
      <point x="200" y="606"/>
      <point x="262" y="671"/>
      <point x="283" y="754" type="curve"/>
      <point x="274" y="754" type="line"/>
      <point x="263" y="724"/>
      <point x="242" y="691"/>
      <point x="200" y="691" type="curve" smooth="yes"/>
      <point x="169" y="691"/>
      <point x="146" y="708"/>
      <point x="123" y="725" type="curve"/>
      <point x="166" y="784" type="line"/>
      <point x="158" y="789" type="line"/>
      <point x="116" y="731" type="line"/>
      <point x="93" y="747"/>
      <point x="70" y="764"/>
      <point x="38" y="764" type="curve" smooth="yes"/>
      <point x="-25" y="764"/>
      <point x="-86" y="697"/>
      <point x="-107" y="616" type="curve"/>
      <point x="-98" y="616" type="line"/>
      <point x="-88" y="645"/>
      <point x="-68" y="679"/>
      <point x="-23" y="679" type="curve" smooth="yes"/>
      <point x="7" y="679"/>
      <point x="30" y="663"/>
      <point x="54" y="646" type="curve"/>
      <point x="10" y="586" type="line"/>
    </contour>
  </outline>
</glyph>
<glyph name="homotheticabovecomb" format="2">
  <unicode hex="034B"/>
  <anchor x="56" y="536" name="_top"/>
  <anchor x="108" y="975" name="top"/>
  <outline>
    <contour>
      <point x="-55" y="712" type="curve"/>
      <point x="-45" y="712" type="line"/>
      <point x="-39" y="735"/>
      <point x="-34" y="762"/>
      <point x="8" y="762" type="curve" smooth="yes"/>
      <point x="68" y="762"/>
      <point x="117" y="706"/>
      <point x="172" y="706" type="curve" smooth="yes"/>
      <point x="230" y="706"/>
      <point x="265" y="769"/>
      <point x="267" y="827" type="curve"/>
      <point x="257" y="827" type="line"/>
      <point x="252" y="803"/>
      <point x="240" y="775"/>
      <point x="201" y="775" type="curve" smooth="yes"/>
      <point x="147" y="775"/>
      <point x="100" y="830"/>
      <point x="44" y="830" type="curve" smooth="yes"/>
      <point x="-18" y="830"/>
      <point x="-51" y="763"/>
    </contour>
    <contour>
      <point x="66" y="563" type="curve" smooth="yes"/>
      <point x="102" y="563"/>
      <point x="123" y="592"/>
      <point x="123" y="635" type="curve" smooth="yes"/>
      <point x="123" y="675"/>
      <point x="104" y="692"/>
      <point x="78" y="692" type="curve" smooth="yes"/>
      <point x="42" y="692"/>
      <point x="21" y="660"/>
      <point x="21" y="618" type="curve" smooth="yes"/>
      <point x="21" y="580"/>
      <point x="38" y="563"/>
    </contour>
    <contour>
      <point x="128" y="846" type="curve" smooth="yes"/>
      <point x="166" y="846"/>
      <point x="186" y="877"/>
      <point x="186" y="918" type="curve" smooth="yes"/>
      <point x="186" y="958"/>
      <point x="167" y="975"/>
      <point x="140" y="975" type="curve" smooth="yes"/>
      <point x="102" y="975"/>
      <point x="83" y="940"/>
      <point x="83" y="900" type="curve" smooth="yes"/>
      <point x="83" y="862"/>
      <point x="101" y="846"/>
    </contour>
  </outline>
</glyph>
<glyph name="almostequaltoabovecomb" format="2">
  <unicode hex="034C"/>
  <anchor x="56" y="536" name="_top"/>
  <anchor x="108" y="955" name="top"/>
  <outline>
    <contour>
      <point x="180" y="789" type="curve" smooth="yes"/>
      <point x="247" y="789"/>
      <point x="276" y="861"/>
      <point x="288" y="943" type="curve"/>
      <point x="278" y="943" type="line"/>
      <point x="267" y="901"/>
      <point x="250" y="878"/>
      <point x="220" y="878" type="curve" smooth="yes"/>
      <point x="171" y="878"/>
      <point x="119" y="942"/>
      <point x="61" y="942" type="curve" smooth="yes"/>
      <point x="-5" y="942"/>
      <point x="-42" y="866"/>
      <point x="-53" y="788" type="curve"/>
      <point x="-43" y="788" type="line"/>
      <point x="-36" y="813"/>
      <point x="-16" y="854"/>
      <point x="20" y="854" type="curve" smooth="yes"/>
      <point x="67" y="854"/>
      <point x="116" y="789"/>
    </contour>
    <contour>
      <point x="158" y="597" type="curve" smooth="yes"/>
      <point x="225" y="597"/>
      <point x="254" y="669"/>
      <point x="266" y="751" type="curve"/>
      <point x="256" y="751" type="line"/>
      <point x="245" y="709"/>
      <point x="228" y="686"/>
      <point x="198" y="686" type="curve" smooth="yes"/>
      <point x="149" y="686"/>
      <point x="97" y="750"/>
      <point x="39" y="750" type="curve" smooth="yes"/>
      <point x="-27" y="750"/>
      <point x="-64" y="674"/>
      <point x="-75" y="596" type="curve"/>
      <point x="-65" y="596" type="line"/>
      <point x="-58" y="621"/>
      <point x="-38" y="662"/>
      <point x="-2" y="662" type="curve" smooth="yes"/>
      <point x="45" y="662"/>
      <point x="94" y="597"/>
    </contour>
  </outline>
</glyph>
<glyph name="fermatacomb" format="2">
  <unicode hex="0352"/>
  <anchor x="57" y="536" name="_top"/>
  <anchor x="101" y="874" name="top"/>
  <outline>
    <contour>
      <point x="-45" y="718" type="curve"/>
      <point x="-35" y="718" type="line"/>
      <point x="-17" y="766"/>
      <point x="20" y="793"/>
      <point x="108" y="793" type="curve" smooth="yes"/>
      <point x="195" y="793"/>
      <point x="224" y="764"/>
      <point x="226" y="718" type="curve"/>
      <point x="236" y="718" type="line"/>
      <point x="234" y="814"/>
      <point x="196" y="874"/>
      <point x="118" y="874" type="curve" smooth="yes"/>
      <point x="26" y="874"/>
      <point x="-25" y="795"/>
    </contour>
    <contour>
      <point x="83" y="592" type="curve" smooth="yes"/>
      <point x="124" y="592"/>
      <point x="138" y="629"/>
      <point x="138" y="670" type="curve" smooth="yes"/>
      <point x="138" y="705"/>
      <point x="122" y="722"/>
      <point x="93" y="722" type="curve" smooth="yes"/>
      <point x="72" y="722"/>
      <point x="37" y="706"/>
      <point x="37" y="646" type="curve" smooth="yes"/>
      <point x="37" y="609"/>
      <point x="56" y="592"/>
    </contour>
  </outline>
</glyph>
<glyph name="archaicsampi" format="2">
  <advance width="502"/>
  <unicode hex="0373"/>
  <anchor x="134" y="-240" name="bottom"/>
  <anchor x="299" y="536" name="top"/>
  <outline>
    <contour>
      <point x="68" y="-240" type="curve"/>
      <point x="236" y="-240" type="line"/>
      <point x="234" y="-236"/>
      <point x="234" y="-228"/>
      <point x="234" y="-217" type="curve" smooth="yes"/>
      <point x="234" y="-174"/>
      <point x="246" y="-89"/>
      <point x="258" y="-34" type="curve" smooth="yes"/>
      <point x="380" y="526" type="line"/>
      <point x="426" y="526" type="line" smooth="yes"/>
      <point x="478" y="526"/>
      <point x="501" y="501"/>
      <point x="501" y="453" type="curve" smooth="yes"/>
      <point x="501" y="436"/>
      <point x="496" y="404"/>
      <point x="491" y="379" type="curve" smooth="yes"/>
      <point x="486" y="354" type="line"/>
      <point x="496" y="354" type="line"/>
      <point x="534" y="536" type="line"/>
      <point x="199" y="536" type="line" smooth="yes"/>
      <point x="112" y="536"/>
      <point x="40" y="504"/>
      <point x="10" y="363" type="curve" smooth="yes"/>
      <point x="7" y="349" type="line"/>
      <point x="17" y="349" type="line"/>
      <point x="40" y="458"/>
      <point x="87" y="526"/>
      <point x="195" y="526" type="curve" smooth="yes"/>
      <point x="214" y="526" type="line"/>
      <point x="98" y="-21" type="line" smooth="yes"/>
      <point x="84" y="-86"/>
      <point x="67" y="-151"/>
      <point x="67" y="-204" type="curve" smooth="yes"/>
      <point x="67" y="-217"/>
      <point x="67" y="-229"/>
    </contour>
  </outline>
</glyph>
<glyph name="dieresistonos" format="2">
  <advance width="471"/>
  <unicode hex="0385"/>
  <anchor x="279" y="536" name="_top"/>
  <outline>
    <contour>
      <point x="291" y="682" type="line"/>
      <point x="308" y="682" type="line"/>
      <point x="345" y="720"/>
      <point x="422" y="810"/>
      <point x="455" y="854" type="curve"/>
      <point x="457" y="864" type="line"/>
      <point x="333" y="864" type="line"/>
      <point x="323" y="811"/>
      <point x="303" y="729"/>
      <point x="292" y="688" type="curve"/>
    </contour>
    <contour>
      <point x="202" y="602" type="curve" smooth="yes"/>
      <point x="230" y="602"/>
      <point x="263" y="623"/>
      <point x="263" y="685" type="curve" smooth="yes"/>
      <point x="263" y="724"/>
      <point x="242" y="742"/>
      <point x="212" y="742" type="curve" smooth="yes"/>
      <point x="173" y="742"/>
      <point x="150" y="708"/>
      <point x="150" y="659" type="curve" smooth="yes"/>
      <point x="150" y="620"/>
      <point x="170" y="602"/>
    </contour>
    <contour>
      <point x="432" y="602" type="curve" smooth="yes"/>
      <point x="461" y="602"/>
      <point x="493" y="623"/>
      <point x="493" y="685" type="curve" smooth="yes"/>
      <point x="493" y="724"/>
      <point x="473" y="742"/>
      <point x="442" y="742" type="curve" smooth="yes"/>
      <point x="404" y="742"/>
      <point x="380" y="708"/>
      <point x="380" y="659" type="curve" smooth="yes"/>
      <point x="380" y="620"/>
      <point x="400" y="602"/>
    </contour>
  </outline>
</glyph>
<glyph name="Gamma" format="2">
  <advance width="504"/>
  <unicode hex="0393"/>
  <anchor x="145" y="0" name="bottom"/>
  <anchor x="387" y="714" name="top"/>
  <outline>
    <contour>
      <point x="-20" y="0" type="line"/>
      <point x="315" y="0" type="line"/>
      <point x="318" y="10" type="line"/>
      <point x="304" y="10" type="line" smooth="yes"/>
      <point x="255" y="10"/>
      <point x="235" y="20"/>
      <point x="235" y="50" type="curve" smooth="yes"/>
      <point x="235" y="56"/>
      <point x="236" y="62"/>
      <point x="238" y="70" type="curve" smooth="yes"/>
      <point x="372" y="704" type="line"/>
      <point x="440" y="704" type="line" smooth="yes"/>
      <point x="516" y="704"/>
      <point x="558" y="656"/>
      <point x="558" y="578" type="curve" smooth="yes"/>
      <point x="558" y="573"/>
      <point x="556" y="550"/>
      <point x="550" y="520" type="curve"/>
      <point x="560" y="520" type="line"/>
      <point x="597" y="714" type="line"/>
      <point x="127" y="714" type="line"/>
      <point x="125" y="704" type="line"/>
      <point x="138" y="704" type="line" smooth="yes"/>
      <point x="174" y="704"/>
      <point x="189" y="691"/>
      <point x="189" y="654" type="curve" smooth="yes"/>
      <point x="189" y="642"/>
      <point x="187" y="627"/>
      <point x="183" y="609" type="curve" smooth="yes"/>
      <point x="68" y="66" type="line" smooth="yes"/>
      <point x="59" y="24"/>
      <point x="44" y="10"/>
      <point x="-6" y="10" type="curve" smooth="yes"/>
      <point x="-19" y="10" type="line"/>
    </contour>
  </outline>
</glyph>
<glyph name="Xi" format="2">
  <advance width="571"/>
  <unicode hex="039E"/>
  <anchor x="229" y="0" name="bottom"/>
  <anchor x="381" y="714" name="top"/>
  <outline>
    <contour>
      <point x="3" y="0" type="line"/>
      <point x="486" y="0" type="line"/>
      <point x="544" y="249" type="line"/>
      <point x="534" y="249" type="line"/>
      <point x="523" y="219" type="line" smooth="yes"/>
      <point x="504" y="166"/>
      <point x="484" y="144"/>
      <point x="424" y="144" type="curve" smooth="yes"/>
      <point x="131" y="144" type="line" smooth="yes"/>
      <point x="66" y="144"/>
      <point x="62" y="186"/>
      <point x="62" y="213" type="curve" smooth="yes"/>
      <point x="62" y="235"/>
      <point x="63" y="241"/>
      <point x="64" y="249" type="curve"/>
      <point x="54" y="249" type="line"/>
    </contour>
    <contour>
      <point x="188" y="266" type="line"/>
      <point x="198" y="266" type="line"/>
      <point x="207" y="290" type="line" smooth="yes"/>
      <point x="218" y="319"/>
      <point x="224" y="331"/>
      <point x="284" y="331" type="curve" smooth="yes"/>
      <point x="347" y="331" type="line" smooth="yes"/>
      <point x="399" y="331"/>
      <point x="405" y="317"/>
      <point x="405" y="289" type="curve"/>
      <point x="405" y="266" type="line"/>
      <point x="415" y="266" type="line"/>
      <point x="455" y="458" type="line"/>
      <point x="445" y="458" type="line"/>
      <point x="437" y="435" type="line" smooth="yes"/>
      <point x="427" y="407"/>
      <point x="413" y="393"/>
      <point x="360" y="393" type="curve" smooth="yes"/>
      <point x="297" y="393" type="line" smooth="yes"/>
      <point x="241" y="393"/>
      <point x="238" y="410"/>
      <point x="238" y="439" type="curve"/>
      <point x="238" y="458" type="line"/>
      <point x="228" y="458" type="line"/>
    </contour>
    <contour>
      <point x="129" y="477" type="line"/>
      <point x="139" y="477" type="line"/>
      <point x="153" y="521" type="line" smooth="yes"/>
      <point x="166" y="562"/>
      <point x="199" y="582"/>
      <point x="259" y="582" type="curve" smooth="yes"/>
      <point x="488" y="582" type="line" smooth="yes"/>
      <point x="554" y="582"/>
      <point x="555" y="552"/>
      <point x="555" y="504" type="curve" smooth="yes"/>
      <point x="555" y="494"/>
      <point x="554" y="484"/>
      <point x="554" y="477" type="curve"/>
      <point x="564" y="477" type="line"/>
      <point x="609" y="714" type="line"/>
      <point x="183" y="714" type="line"/>
    </contour>
  </outline>
</glyph>
<glyph name="Pi" format="2">
  <advance width="693"/>
  <unicode hex="03A0"/>
  <anchor x="300" y="0" name="bottom"/>
  <anchor x="447" y="714" name="top"/>
  <outline>
    <contour>
      <point x="-21" y="0" type="line"/>
      <point x="301" y="0" type="line"/>
      <point x="303" y="10" type="line"/>
      <point x="290" y="10" type="line" smooth="yes"/>
      <point x="257" y="10"/>
      <point x="232" y="10"/>
      <point x="232" y="35" type="curve" smooth="yes"/>
      <point x="232" y="44"/>
      <point x="234" y="53"/>
      <point x="236" y="62" type="curve" smooth="yes"/>
      <point x="373" y="704" type="line"/>
      <point x="545" y="704" type="line"/>
      <point x="410" y="63" type="line" smooth="yes"/>
      <point x="401" y="21"/>
      <point x="369" y="10"/>
      <point x="335" y="10" type="curve" smooth="yes"/>
      <point x="322" y="10" type="line"/>
      <point x="320" y="0" type="line"/>
      <point x="612" y="0" type="line"/>
      <point x="614" y="10" type="line"/>
      <point x="601" y="10" type="line" smooth="yes"/>
      <point x="586" y="10"/>
      <point x="575" y="14"/>
      <point x="575" y="32" type="curve" smooth="yes"/>
      <point x="575" y="47"/>
      <point x="577" y="53"/>
      <point x="579" y="63" type="curve" smooth="yes"/>
      <point x="703" y="651" type="line" smooth="yes"/>
      <point x="712" y="696"/>
      <point x="744" y="704"/>
      <point x="778" y="704" type="curve" smooth="yes"/>
      <point x="791" y="704" type="line"/>
      <point x="794" y="714" type="line"/>
      <point x="129" y="714" type="line"/>
      <point x="127" y="704" type="line"/>
      <point x="140" y="704" type="line" smooth="yes"/>
      <point x="173" y="704"/>
      <point x="197" y="700"/>
      <point x="197" y="679" type="curve" smooth="yes"/>
      <point x="197" y="670"/>
      <point x="195" y="658"/>
      <point x="190" y="633" type="curve" smooth="yes"/>
      <point x="68" y="62" type="line" smooth="yes"/>
      <point x="59" y="18"/>
      <point x="28" y="10"/>
      <point x="-6" y="10" type="curve" smooth="yes"/>
      <point x="-19" y="10" type="line"/>
    </contour>
  </outline>
</glyph>
<glyph name="kappa" format="2">
  <advance width="531"/>
  <unicode hex="03BA"/>
  <anchor x="209" y="0" name="bottom"/>
  <anchor x="323" y="536" name="top"/>
  <outline>
    <contour>
      <point x="476" y="-7" type="curve" smooth="yes"/>
      <point x="496" y="-7" type="line"/>
      <point x="498" y="3" type="line"/>
      <point x="494" y="3" type="line" smooth="yes"/>
      <point x="473" y="3"/>
      <point x="458" y="17"/>
      <point x="444" y="87" type="curve" smooth="yes"/>
      <point x="378" y="416" type="line"/>
      <point x="322" y="328" type="line"/>
      <point x="398" y="443"/>
      <point x="415" y="462"/>
      <point x="453" y="462" type="curve" smooth="yes"/>
      <point x="483" y="462"/>
      <point x="500" y="443"/>
      <point x="500" y="400" type="curve"/>
      <point x="547" y="403"/>
      <point x="569" y="443"/>
      <point x="569" y="487" type="curve" smooth="yes"/>
      <point x="569" y="523"/>
      <point x="547" y="545"/>
      <point x="508" y="545" type="curve" smooth="yes"/>
      <point x="459" y="545"/>
      <point x="430" y="510"/>
      <point x="342" y="380" type="curve" smooth="yes"/>
      <point x="288" y="300" type="line"/>
      <point x="213" y="188" type="line"/>
      <point x="225" y="231"/>
      <point x="240" y="297"/>
      <point x="246" y="323" type="curve" smooth="yes"/>
      <point x="293" y="536" type="line"/>
      <point x="62" y="536" type="line"/>
      <point x="60" y="526" type="line"/>
      <point x="70" y="526" type="line" smooth="yes"/>
      <point x="108" y="526"/>
      <point x="112" y="515"/>
      <point x="112" y="497" type="curve" smooth="yes"/>
      <point x="112" y="483"/>
      <point x="107" y="462"/>
      <point x="101" y="435" type="curve" smooth="yes"/>
      <point x="10" y="0" type="line"/>
      <point x="174" y="0" type="line"/>
      <point x="210" y="170" type="line"/>
      <point x="317" y="315" type="line"/>
      <point x="261" y="244" type="line"/>
      <point x="283" y="104" type="line" smooth="yes"/>
      <point x="298" y="9"/>
      <point x="339" y="-7"/>
    </contour>
  </outline>
</glyph>
<glyph name="nu" format="2">
  <advance width="541"/>
  <unicode hex="03BD"/>
  <anchor x="207" y="0" name="bottom"/>
  <anchor x="321" y="536" name="top"/>
  <outline>
    <contour>
      <point x="154" y="0" type="curve"/>
      <point x="262" y="0" type="line"/>
      <point x="382" y="100"/>
      <point x="534" y="341"/>
      <point x="534" y="471" type="curve" smooth="yes"/>
      <point x="534" y="521"/>
      <point x="510" y="546"/>
      <point x="473" y="546" type="curve" smooth="yes"/>
      <point x="433" y="546"/>
      <point x="410" y="518"/>
      <point x="405" y="470" type="curve"/>
      <point x="426" y="470"/>
      <point x="450" y="444"/>
      <point x="450" y="367" type="curve" smooth="yes"/>
      <point x="450" y="233"/>
      <point x="387" y="153"/>
      <point x="292" y="42" type="curve"/>
      <point x="276" y="437"/>
      <point x="274" y="546"/>
      <point x="190" y="546" type="curve" smooth="yes"/>
      <point x="136" y="546"/>
      <point x="84" y="521"/>
      <point x="44" y="495" type="curve"/>
      <point x="48" y="486" type="line"/>
      <point x="56" y="491"/>
      <point x="71" y="497"/>
      <point x="84" y="497" type="curve" smooth="yes"/>
      <point x="129" y="497"/>
      <point x="130" y="416"/>
    </contour>
  </outline>
</glyph>
<glyph name="xi" format="2">
  <advance width="451"/>
  <unicode hex="03BE"/>
  <anchor x="141" y="-204" name="bottom"/>
  <anchor x="354" y="799" name="top"/>
  <outline>
    <contour>
      <point x="145" y="-205" type="line"/>
      <point x="293" y="-183"/>
      <point x="403" y="-115"/>
      <point x="403" y="2" type="curve" smooth="yes"/>
      <point x="403" y="75"/>
      <point x="360" y="95"/>
      <point x="288" y="119" type="curve" smooth="yes"/>
      <point x="216" y="143"/>
      <point x="182" y="155"/>
      <point x="182" y="219" type="curve" smooth="yes"/>
      <point x="182" y="314"/>
      <point x="257" y="402"/>
      <point x="311" y="427" type="curve"/>
      <point x="338" y="409"/>
      <point x="362" y="396"/>
      <point x="397" y="396" type="curve" smooth="yes"/>
      <point x="432" y="396"/>
      <point x="458" y="409"/>
      <point x="458" y="446" type="curve" smooth="yes"/>
      <point x="458" y="482"/>
      <point x="432" y="494"/>
      <point x="408" y="494" type="curve" smooth="yes"/>
      <point x="381" y="494"/>
      <point x="345" y="479"/>
      <point x="311" y="448" type="curve"/>
      <point x="272" y="471"/>
      <point x="266" y="508"/>
      <point x="266" y="542" type="curve" smooth="yes"/>
      <point x="266" y="621"/>
      <point x="298" y="664"/>
      <point x="390" y="706" type="curve"/>
      <point x="414" y="693"/>
      <point x="437" y="672"/>
      <point x="475" y="672" type="curve" smooth="yes"/>
      <point x="512" y="672"/>
      <point x="532" y="693"/>
      <point x="532" y="723" type="curve" smooth="yes"/>
      <point x="532" y="750"/>
      <point x="515" y="769"/>
      <point x="482" y="769" type="curve" smooth="yes"/>
      <point x="448" y="769"/>
      <point x="418" y="749"/>
      <point x="387" y="721" type="curve"/>
      <point x="324" y="727"/>
      <point x="212" y="768"/>
      <point x="177" y="804" type="curve"/>
      <point x="170" y="797" type="line"/>
      <point x="204" y="765"/>
      <point x="312" y="719"/>
      <point x="379" y="712" type="curve"/>
      <point x="272" y="696"/>
      <point x="120" y="646"/>
      <point x="120" y="544" type="curve" smooth="yes"/>
      <point x="120" y="478"/>
      <point x="185" y="447"/>
      <point x="295" y="439" type="curve"/>
      <point x="294" y="434" type="line"/>
      <point x="121" y="382"/>
      <point x="17" y="261"/>
      <point x="17" y="144" type="curve" smooth="yes"/>
      <point x="17" y="38"/>
      <point x="101" y="11"/>
      <point x="180" y="-13" type="curve" smooth="yes"/>
      <point x="257" y="-36"/>
      <point x="281" y="-57"/>
      <point x="281" y="-97" type="curve" smooth="yes"/>
      <point x="281" y="-148"/>
      <point x="240" y="-173"/>
      <point x="143" y="-195" type="curve"/>
    </contour>
  </outline>
</glyph>
<glyph name="chi" format="2">
  <advance width="506"/>
  <unicode hex="03C7"/>
  <anchor x="149" y="-240" name="bottom"/>
  <anchor x="314" y="536" name="top"/>
  <anchor x="550" y="536" name="topright"/>
  <outline>
    <contour>
      <point x="-114" y="-240" type="line"/>
      <point x="56" y="-240" type="line"/>
      <point x="247" y="96" type="line"/>
      <point x="266" y="-78" type="line" smooth="yes"/>
      <point x="279" y="-198"/>
      <point x="296" y="-240"/>
      <point x="348" y="-240" type="curve" smooth="yes"/>
      <point x="395" y="-240"/>
      <point x="428" y="-205"/>
      <point x="428" y="-153" type="curve"/>
      <point x="424" y="-146" type="line"/>
      <point x="412" y="-153"/>
      <point x="388" y="-164"/>
      <point x="357" y="-164" type="curve" smooth="yes"/>
      <point x="321" y="-164"/>
      <point x="292" y="-150"/>
      <point x="281" y="-60" type="curve" smooth="yes"/>
      <point x="261" y="110" type="line"/>
      <point x="560" y="536" type="line"/>
      <point x="397" y="536" type="line"/>
      <point x="237" y="264" type="line"/>
      <point x="217" y="399" type="line" smooth="yes"/>
      <point x="200" y="516"/>
      <point x="181" y="549"/>
      <point x="131" y="549" type="curve" smooth="yes"/>
      <point x="87" y="549"/>
      <point x="60" y="523"/>
      <point x="50" y="463" type="curve"/>
      <point x="52" y="458" type="line"/>
      <point x="62" y="466"/>
      <point x="89" y="477"/>
      <point x="118" y="477" type="curve" smooth="yes"/>
      <point x="173" y="477"/>
      <point x="199" y="438"/>
      <point x="210" y="355" type="curve" smooth="yes"/>
      <point x="224" y="249" type="line"/>
    </contour>
  </outline>
</glyph>
<glyph name="omega" format="2">
  <advance width="707"/>
  <unicode hex="03C9"/>
  <anchor x="287" y="0" name="bottom"/>
  <anchor x="416" y="536" name="top"/>
  <outline>
    <contour>
      <point x="188" y="-10" type="curve" smooth="yes"/>
      <point x="281" y="-10"/>
      <point x="310" y="65"/>
      <point x="335" y="124" type="curve"/>
      <point x="339" y="124" type="line"/>
      <point x="358" y="41"/>
      <point x="381" y="-10"/>
      <point x="467" y="-10" type="curve" smooth="yes"/>
      <point x="589" y="-10"/>
      <point x="667" y="114"/>
      <point x="667" y="293" type="curve" smooth="yes"/>
      <point x="667" y="432"/>
      <point x="594" y="509"/>
      <point x="493" y="541" type="curve"/>
      <point x="488" y="533" type="line"/>
      <point x="510" y="488"/>
      <point x="523" y="431"/>
      <point x="523" y="314" type="curve" smooth="yes"/>
      <point x="523" y="165"/>
      <point x="483" y="18"/>
      <point x="419" y="18" type="curve" smooth="yes"/>
      <point x="376" y="18"/>
      <point x="359" y="85"/>
      <point x="347" y="140" type="curve"/>
      <point x="376" y="179"/>
      <point x="419" y="249"/>
      <point x="419" y="312" type="curve" smooth="yes"/>
      <point x="419" y="351"/>
      <point x="403" y="383"/>
      <point x="368" y="383" type="curve" smooth="yes"/>
      <point x="329" y="383"/>
      <point x="302" y="345"/>
      <point x="302" y="279" type="curve" smooth="yes"/>
      <point x="302" y="220"/>
      <point x="323" y="155"/>
      <point x="329" y="143" type="curve"/>
      <point x="305" y="70"/>
      <point x="273" y="21"/>
      <point x="239" y="21" type="curve" smooth="yes"/>
      <point x="212" y="21"/>
      <point x="187" y="53"/>
      <point x="187" y="166" type="curve" smooth="yes"/>
      <point x="187" y="304"/>
      <point x="228" y="460"/>
      <point x="289" y="533" type="curve"/>
      <point x="285" y="541" type="line"/>
      <point x="124" y="497"/>
      <point x="35" y="371"/>
      <point x="35" y="191" type="curve" smooth="yes"/>
      <point x="35" y="55"/>
      <point x="94" y="-10"/>
    </contour>
  </outline>
</glyph>
<glyph name="uni04CA" format="2">
  <advance width="605"/>
  <unicode hex="04CA"/>
  <anchor x="238" y="0" name="bottom"/>
  <anchor x="352" y="536" name="top"/>
  <outline>
    <contour>
      <point x="364" y="-210" type="line"/>
      <point x="460" y="-210" type="line"/>
      <point x="582" y="64" type="line"/>
      <point x="576" y="70" type="line"/>
      <point x="564" y="46" type="line"/>
    </contour>
    <component base="afii10079" xOffset="-9"/>
  </outline>
</glyph>
<glyph name="uni1D7C" format="2">
  <advance width="352"/>
  <unicode hex="1D7C"/>
  <anchor x="124" y="0" name="bottom"/>
  <anchor x="218" y="536" name="top"/>
  <outline>
    <contour>
      <point x="5" y="287" type="line"/>
      <point x="334" y="287" type="line"/>
      <point x="336" y="297" type="line"/>
      <point x="7" y="297" type="line"/>
    </contour>
    <component base="iota" xOffset="1"/>
  </outline>
</glyph>
<glyph name="uni1D93" format="2">
  <advance width="535"/>
  <unicode hex="1D93"/>
  <anchor x="183" y="0" name="bottom"/>
  <anchor x="297" y="536" name="top"/>
  <outline>
    <contour>
      <point x="457" y="-197" type="curve" smooth="yes"/>
      <point x="495" y="-197"/>
      <point x="531" y="-167"/>
      <point x="531" y="-119" type="curve" smooth="yes"/>
      <point x="531" y="-111"/>
      <point x="530" y="-99"/>
      <point x="527" y="-88" type="curve"/>
      <point x="506" y="-102"/>
      <point x="490" y="-112"/>
      <point x="464" y="-112" type="curve" smooth="yes"/>
      <point x="433" y="-112"/>
      <point x="414" y="-97"/>
      <point x="414" y="-53" type="curve" smooth="yes"/>
      <point x="414" y="-43"/>
      <point x="415" y="-21"/>
      <point x="419" y="-3" type="curve" smooth="yes"/>
      <point x="438" y="92" type="line"/>
      <point x="428" y="97" type="line"/>
      <point x="403" y="-30" type="line" smooth="yes"/>
      <point x="398" y="-56"/>
      <point x="396" y="-96"/>
      <point x="396" y="-115" type="curve" smooth="yes"/>
      <point x="396" y="-166"/>
      <point x="418" y="-197"/>
    </contour>
    <component base="uni0511"/>
  </outline>
</glyph>
<glyph name="LL-middleWelsh" format="2">
  <advance width="885"/>
  <unicode hex="1EFA"/>
  <anchor x="326" y="0" name="bottom"/>
  <anchor x="478" y="714" name="top"/>
  <outline>
    <contour>
      <point x="-45" y="0" type="line"/>
      <point x="803" y="0" type="line"/>
      <point x="853" y="226" type="line"/>
      <point x="843" y="226" type="line"/>
      <point x="832" y="181" type="line" smooth="yes"/>
      <point x="811" y="94"/>
      <point x="756" y="10"/>
      <point x="671" y="10" type="curve" smooth="yes"/>
      <point x="537" y="10" type="line"/>
      <point x="668" y="646" type="line" smooth="yes"/>
      <point x="678" y="696"/>
      <point x="711" y="704"/>
      <point x="747" y="704" type="curve" smooth="yes"/>
      <point x="758" y="704" type="line"/>
      <point x="760" y="714" type="line"/>
      <point x="105" y="714" type="line"/>
      <point x="103" y="704" type="line"/>
      <point x="113" y="704" type="line" smooth="yes"/>
      <point x="148" y="704"/>
      <point x="171" y="700"/>
      <point x="171" y="674" type="curve" smooth="yes"/>
      <point x="171" y="668"/>
      <point x="170" y="657"/>
      <point x="165" y="636" type="curve" smooth="yes"/>
      <point x="42" y="65" type="line" smooth="yes"/>
      <point x="32" y="17"/>
      <point x="1" y="10"/>
      <point x="-32" y="10" type="curve" smooth="yes"/>
      <point x="-42" y="10" type="line"/>
    </contour>
    <contour>
      <point x="267" y="10" type="line" smooth="yes"/>
      <point x="233" y="10"/>
      <point x="210" y="14"/>
      <point x="210" y="40" type="curve" smooth="yes"/>
      <point x="210" y="52"/>
      <point x="213" y="66"/>
      <point x="218" y="89" type="curve" smooth="yes"/>
      <point x="337" y="647" type="line" smooth="yes"/>
      <point x="348" y="697"/>
      <point x="378" y="704"/>
      <point x="414" y="704" type="curve" smooth="yes"/>
      <point x="447" y="704" type="line" smooth="yes"/>
      <point x="481" y="704"/>
      <point x="504" y="700"/>
      <point x="504" y="674" type="curve" smooth="yes"/>
      <point x="504" y="665"/>
      <point x="501" y="653"/>
      <point x="497" y="636" type="curve" smooth="yes"/>
      <point x="377" y="65" type="line" smooth="yes"/>
      <point x="367" y="17"/>
      <point x="335" y="10"/>
      <point x="302" y="10" type="curve" smooth="yes"/>
    </contour>
  </outline>
</glyph>
<glyph name="Yloop" format="2">
  <advance width="598"/>
  <unicode hex="1EFE"/>
  <anchor x="156" y="-58" name="bottom"/>
  <anchor x="388" y="714" name="top"/>
  <outline>
    <contour>
      <point x="110" y="-60" type="curve" smooth="yes"/>
      <point x="211" y="-60"/>
      <point x="268" y="0"/>
      <point x="340" y="148" type="curve" smooth="yes"/>
      <point x="564" y="609" type="line" smooth="yes"/>
      <point x="607" y="698"/>
      <point x="621" y="704"/>
      <point x="655" y="704" type="curve" smooth="yes"/>
      <point x="681" y="704" type="line"/>
      <point x="683" y="714" type="line"/>
      <point x="487" y="714" type="line"/>
      <point x="485" y="704" type="line"/>
      <point x="494" y="704" type="line" smooth="yes"/>
      <point x="542" y="704"/>
      <point x="565" y="693"/>
      <point x="565" y="662" type="curve" smooth="yes"/>
      <point x="565" y="641"/>
      <point x="554" y="611"/>
      <point x="534" y="570" type="curve" smooth="yes"/>
      <point x="418" y="332" type="line" smooth="yes"/>
      <point x="405" y="306"/>
      <point x="396" y="287"/>
      <point x="389" y="268" type="curve"/>
      <point x="381" y="327"/>
      <point x="376" y="356"/>
      <point x="368" y="408" type="curve" smooth="yes"/>
      <point x="338" y="610" type="line" smooth="yes"/>
      <point x="336" y="626"/>
      <point x="334" y="640"/>
      <point x="334" y="651" type="curve" smooth="yes"/>
      <point x="334" y="690"/>
      <point x="350" y="704"/>
      <point x="386" y="704" type="curve" smooth="yes"/>
      <point x="416" y="704" type="line"/>
      <point x="418" y="714" type="line"/>
      <point x="100" y="714" type="line"/>
      <point x="98" y="704" type="line"/>
      <point x="104" y="704" type="line" smooth="yes"/>
      <point x="129" y="704"/>
      <point x="142" y="690"/>
      <point x="151" y="646" type="curve" smooth="yes"/>
      <point x="254" y="166" type="line"/>
      <point x="229" y="203"/>
      <point x="179" y="227"/>
      <point x="124" y="227" type="curve" smooth="yes"/>
      <point x="32" y="227"/>
      <point x="-25" y="167"/>
      <point x="-25" y="73" type="curve" smooth="yes"/>
      <point x="-25" y="-14"/>
      <point x="26" y="-60"/>
    </contour>
    <contour>
      <point x="111" y="-50" type="curve" smooth="yes"/>
      <point x="34" y="-50"/>
      <point x="-13" y="-7"/>
      <point x="-13" y="75" type="curve" smooth="yes"/>
      <point x="-13" y="161"/>
      <point x="39" y="217"/>
      <point x="123" y="217" type="curve" smooth="yes"/>
      <point x="204" y="217"/>
      <point x="256" y="177"/>
      <point x="285" y="70" type="curve"/>
      <point x="280" y="61" type="line" smooth="yes"/>
      <point x="237" y="-17"/>
      <point x="178" y="-50"/>
    </contour>
  </outline>
</glyph>
<glyph name="uni1FEF" format="2">
  <advance width="296"/>
  <unicode hex="1FEF"/>
  <anchor x="267" y="536" name="_top"/>
  <anchor x="308" y="809" name="top"/>
  <outline>
    <contour>
      <point x="318" y="641" type="curve"/>
      <point x="345" y="641" type="line"/>
      <point x="343" y="653" type="line"/>
      <point x="330" y="704"/>
      <point x="315" y="770"/>
      <point x="304" y="823" type="curve"/>
      <point x="168" y="823" type="line"/>
      <point x="168" y="811" type="line"/>
      <point x="206" y="766"/>
      <point x="278" y="681"/>
    </contour>
  </outline>
</glyph>
<glyph name="pertenthousand" format="2">
  <advance width="1413"/>
  <unicode hex="2031"/>
  <outline>
    <contour>
      <point x="173" y="0" type="line"/>
      <point x="184" y="0" type="line"/>
      <point x="588" y="714" type="line"/>
      <point x="577" y="714" type="line"/>
    </contour>
    <contour>
      <point x="180" y="279" type="curve" smooth="yes"/>
      <point x="324" y="279"/>
      <point x="387" y="462"/>
      <point x="387" y="575" type="curve" smooth="yes"/>
      <point x="387" y="663"/>
      <point x="348" y="725"/>
      <point x="263" y="725" type="curve" smooth="yes"/>
      <point x="118" y="725"/>
      <point x="59" y="545"/>
      <point x="59" y="429" type="curve" smooth="yes"/>
      <point x="59" y="324"/>
      <point x="108" y="279"/>
    </contour>
    <contour>
      <point x="199" y="289" type="curve" smooth="yes"/>
      <point x="176" y="289"/>
      <point x="166" y="316"/>
      <point x="166" y="395" type="curve" smooth="yes"/>
      <point x="166" y="550"/>
      <point x="204" y="715"/>
      <point x="260" y="715" type="curve" smooth="yes"/>
      <point x="282" y="715"/>
      <point x="289" y="690"/>
      <point x="289" y="610" type="curve" smooth="yes"/>
      <point x="289" y="421"/>
      <point x="250" y="289"/>
    </contour>
    <contour>
      <point x="491" y="-12" type="curve" smooth="yes"/>
      <point x="636" y="-12"/>
      <point x="698" y="171"/>
      <point x="698" y="283" type="curve" smooth="yes"/>
      <point x="698" y="372"/>
      <point x="659" y="434"/>
      <point x="574" y="434" type="curve" smooth="yes"/>
      <point x="429" y="434"/>
      <point x="370" y="254"/>
      <point x="370" y="138" type="curve" smooth="yes"/>
      <point x="370" y="33"/>
      <point x="419" y="-12"/>
    </contour>
    <contour>
      <point x="510" y="-2" type="curve" smooth="yes"/>
      <point x="487" y="-2"/>
      <point x="477" y="25"/>
      <point x="477" y="104" type="curve" smooth="yes"/>
      <point x="477" y="259"/>
      <point x="516" y="424"/>
      <point x="571" y="424" type="curve" smooth="yes"/>
      <point x="593" y="424"/>
      <point x="600" y="399"/>
      <point x="600" y="319" type="curve" smooth="yes"/>
      <point x="600" y="130"/>
      <point x="561" y="-2"/>
    </contour>
    <contour>
      <point x="838" y="-12" type="curve" smooth="yes"/>
      <point x="983" y="-12"/>
      <point x="1045" y="171"/>
      <point x="1045" y="283" type="curve" smooth="yes"/>
      <point x="1045" y="372"/>
      <point x="1006" y="434"/>
      <point x="921" y="434" type="curve" smooth="yes"/>
      <point x="776" y="434"/>
      <point x="717" y="254"/>
      <point x="717" y="138" type="curve" smooth="yes"/>
      <point x="717" y="33"/>
      <point x="766" y="-12"/>
    </contour>
    <contour>
      <point x="857" y="-2" type="curve" smooth="yes"/>
      <point x="834" y="-2"/>
      <point x="824" y="25"/>
      <point x="824" y="104" type="curve" smooth="yes"/>
      <point x="824" y="259"/>
      <point x="863" y="424"/>
      <point x="918" y="424" type="curve" smooth="yes"/>
      <point x="940" y="424"/>
      <point x="947" y="399"/>
      <point x="947" y="319" type="curve" smooth="yes"/>
      <point x="947" y="130"/>
      <point x="908" y="-2"/>
    </contour>
    <contour>
      <point x="1185" y="-12" type="curve" smooth="yes"/>
      <point x="1330" y="-12"/>
      <point x="1392" y="171"/>
      <point x="1392" y="283" type="curve" smooth="yes"/>
      <point x="1392" y="372"/>
      <point x="1353" y="434"/>
      <point x="1268" y="434" type="curve" smooth="yes"/>
      <point x="1123" y="434"/>
      <point x="1064" y="254"/>
      <point x="1064" y="138" type="curve" smooth="yes"/>
      <point x="1064" y="33"/>
      <point x="1113" y="-12"/>
    </contour>
    <contour>
      <point x="1204" y="-2" type="curve" smooth="yes"/>
      <point x="1181" y="-2"/>
      <point x="1171" y="25"/>
      <point x="1171" y="104" type="curve" smooth="yes"/>
      <point x="1171" y="259"/>
      <point x="1210" y="424"/>
      <point x="1265" y="424" type="curve" smooth="yes"/>
      <point x="1287" y="424"/>
      <point x="1294" y="399"/>
      <point x="1294" y="319" type="curve" smooth="yes"/>
      <point x="1294" y="130"/>
      <point x="1255" y="-2"/>
    </contour>
  </outline>
</glyph>
<glyph name="guilsinglleft" format="2">
  <advance width="294"/>
  <unicode hex="2039"/>
  <outline>
    <contour>
      <point x="201" y="63" type="line"/>
      <point x="210" y="63" type="line"/>
      <point x="182" y="273" type="line"/>
      <point x="281" y="477" type="line"/>
      <point x="273" y="477" type="line"/>
      <point x="64" y="288" type="line"/>
      <point x="62" y="278" type="line"/>
    </contour>
  </outline>
</glyph>
<glyph name="tironiansignet" format="2">
  <advance width="485"/>
  <unicode hex="204A"/>
  <outline>
    <contour>
      <point x="310" y="-177" type="line"/>
      <point x="320" y="-177" type="line"/>
      <point x="466" y="456" type="line"/>
      <point x="466" y="557" type="line"/>
      <point x="370" y="542"/>
      <point x="285" y="536"/>
      <point x="217" y="536" type="curve" smooth="yes"/>
      <point x="156" y="536"/>
      <point x="94" y="548"/>
      <point x="53" y="564" type="curve"/>
      <point x="42" y="531"/>
      <point x="41" y="496"/>
      <point x="41" y="479" type="curve" smooth="yes"/>
      <point x="41" y="371"/>
      <point x="84" y="336"/>
      <point x="220" y="336" type="curve" smooth="yes"/>
      <point x="285" y="336"/>
      <point x="356" y="349"/>
      <point x="436" y="369" type="curve"/>
    </contour>
  </outline>
</glyph>
<glyph name="commercialMinusSign" format="2">
  <advance width="456"/>
  <unicode hex="2052"/>
  <outline>
    <contour>
      <point x="353" y="-9" type="curve" smooth="yes"/>
      <point x="398" y="-9"/>
      <point x="438" y="12"/>
      <point x="438" y="76" type="curve" smooth="yes"/>
      <point x="438" y="141"/>
      <point x="398" y="162"/>
      <point x="353" y="162" type="curve" smooth="yes"/>
      <point x="306" y="162"/>
      <point x="269" y="141"/>
      <point x="269" y="76" type="curve" smooth="yes"/>
      <point x="269" y="12"/>
      <point x="306" y="-9"/>
    </contour>
    <contour>
      <point x="139" y="549" type="curve" smooth="yes"/>
      <point x="184" y="549"/>
      <point x="223" y="570"/>
      <point x="223" y="634" type="curve" smooth="yes"/>
      <point x="223" y="698"/>
      <point x="184" y="719"/>
      <point x="139" y="719" type="curve" smooth="yes"/>
      <point x="92" y="719"/>
      <point x="55" y="698"/>
      <point x="55" y="634" type="curve" smooth="yes"/>
      <point x="55" y="570"/>
      <point x="92" y="549"/>
    </contour>
    <contour>
      <point x="145" y="0" type="line"/>
      <point x="165" y="0" type="line"/>
      <point x="348" y="714" type="line"/>
      <point x="328" y="714" type="line"/>
    </contour>
  </outline>
</glyph>
<glyph name="sevensuperior" format="2">
  <advance width="343"/>
  <unicode hex="2077"/>
  <outline>
    <contour>
      <point x="105" y="387" type="line"/>
      <point x="196" y="387" type="line"/>
      <point x="396" y="772" type="line"/>
      <point x="405" y="814" type="line"/>
      <point x="163" y="814" type="line"/>
      <point x="133" y="682" type="line"/>
      <point x="142" y="682" type="line"/>
      <point x="150" y="712" type="line" smooth="yes"/>
      <point x="155" y="732"/>
      <point x="167" y="743"/>
      <point x="185" y="743" type="curve" smooth="yes"/>
      <point x="369" y="743" type="line"/>
    </contour>
  </outline>
</glyph>
<glyph name="ninesuperior" format="2">
  <advance width="343"/>
  <unicode hex="2079"/>
  <outline>
    <contour>
      <point x="174" y="381" type="curve" smooth="yes"/>
      <point x="301" y="381"/>
      <point x="389" y="497"/>
      <point x="389" y="664" type="curve" smooth="yes"/>
      <point x="389" y="766"/>
      <point x="349" y="826"/>
      <point x="266" y="826" type="curve" smooth="yes"/>
      <point x="184" y="826"/>
      <point x="109" y="760"/>
      <point x="109" y="666" type="curve" smooth="yes"/>
      <point x="109" y="594"/>
      <point x="145" y="561"/>
      <point x="203" y="561" type="curve" smooth="yes"/>
      <point x="246" y="561"/>
      <point x="273" y="579"/>
      <point x="297" y="608" type="curve"/>
      <point x="269" y="455"/>
      <point x="234" y="391"/>
      <point x="180" y="391" type="curve" smooth="yes"/>
      <point x="145" y="391"/>
      <point x="127" y="412"/>
      <point x="127" y="495" type="curve"/>
      <point x="97" y="495"/>
      <point x="77" y="479"/>
      <point x="77" y="448" type="curve" smooth="yes"/>
      <point x="77" y="414"/>
      <point x="104" y="381"/>
    </contour>
    <contour>
      <point x="237" y="583" type="curve" smooth="yes"/>
      <point x="213" y="583"/>
      <point x="198" y="601"/>
      <point x="198" y="661" type="curve" smooth="yes"/>
      <point x="198" y="751"/>
      <point x="227" y="816"/>
      <point x="261" y="816" type="curve" smooth="yes"/>
      <point x="291" y="816"/>
      <point x="304" y="779"/>
      <point x="304" y="720" type="curve" smooth="yes"/>
      <point x="304" y="695"/>
      <point x="304" y="668"/>
      <point x="299" y="622" type="curve"/>
      <point x="278" y="597"/>
      <point x="257" y="583"/>
    </contour>
  </outline>
</glyph>
<glyph name="parenrightsuperior" format="2">
  <advance width="257"/>
  <unicode hex="207E"/>
  <outline>
    <contour>
      <point x="6" y="194" type="line"/>
      <point x="167" y="235"/>
      <point x="269" y="388"/>
      <point x="269" y="556" type="curve" smooth="yes"/>
      <point x="269" y="672"/>
      <point x="220" y="748"/>
      <point x="132" y="786" type="curve"/>
      <point x="130" y="777" type="line"/>
      <point x="157" y="751"/>
      <point x="180" y="693"/>
      <point x="180" y="586" type="curve" smooth="yes"/>
      <point x="180" y="401"/>
      <point x="121" y="270"/>
      <point x="8" y="205" type="curve"/>
    </contour>
  </outline>
</glyph>
<glyph name="franc" format="2">
  <advance width="455"/>
  <unicode hex="20A3"/>
  <outline>
    <contour>
      <point x="-12" y="0" type="line"/>
      <point x="316" y="0" type="line"/>
      <point x="319" y="10" type="line"/>
      <point x="278" y="10" type="line" smooth="yes"/>
      <point x="251" y="10"/>
      <point x="232" y="14"/>
      <point x="232" y="38" type="curve" smooth="yes"/>
      <point x="232" y="47"/>
      <point x="233" y="54"/>
      <point x="237" y="72" type="curve" smooth="yes"/>
      <point x="265" y="197" type="line"/>
      <point x="368" y="197" type="line"/>
      <point x="370" y="207" type="line"/>
      <point x="267" y="207" type="line"/>
      <point x="298" y="348" type="line"/>
      <point x="431" y="348" type="line"/>
      <point x="433" y="358" type="line"/>
      <point x="300" y="358" type="line"/>
      <point x="373" y="704" type="line"/>
      <point x="470" y="704" type="line" smooth="yes"/>
      <point x="517" y="704"/>
      <point x="525" y="669"/>
      <point x="525" y="634" type="curve" smooth="yes"/>
      <point x="525" y="626"/>
      <point x="522" y="595"/>
      <point x="519" y="571" type="curve"/>
      <point x="529" y="571" type="line"/>
      <point x="557" y="714" type="line"/>
      <point x="129" y="714" type="line"/>
      <point x="127" y="704" type="line"/>
      <point x="137" y="704" type="line" smooth="yes"/>
      <point x="170" y="704"/>
      <point x="194" y="700"/>
      <point x="194" y="673" type="curve" smooth="yes"/>
      <point x="194" y="659"/>
      <point x="187" y="625"/>
      <point x="182" y="604" type="curve" smooth="yes"/>
      <point x="96" y="207" type="line"/>
      <point x="34" y="207" type="line"/>
      <point x="32" y="197" type="line"/>
      <point x="94" y="197" type="line"/>
      <point x="66" y="68" type="line" smooth="yes"/>
      <point x="55" y="19"/>
      <point x="25" y="10"/>
      <point x="-3" y="10" type="curve" smooth="yes"/>
      <point x="-10" y="10" type="line"/>
    </contour>
  </outline>
</glyph>
<glyph name="uni20A9" format="2">
  <advance width="935"/>
  <unicode hex="20A9"/>
  <anchor x="379" y="0" name="bottom"/>
  <anchor x="581" y="714" name="top"/>
  <anchor x="1034" y="714" name="topright"/>
  <outline>
    <contour>
      <point x="65" y="464" type="line"/>
      <point x="942" y="464" type="line"/>
      <point x="944" y="474" type="line"/>
      <point x="67" y="474" type="line"/>
    </contour>
    <contour>
      <point x="40" y="345" type="line"/>
      <point x="917" y="347" type="line"/>
      <point x="919" y="357" type="line"/>
      <point x="42" y="357" type="line"/>
    </contour>
    <component base="W" xOffset="-8"/>
  </outline>
</glyph>
<glyph name="livreTournois" format="2">
  <advance width="648"/>
  <unicode hex="20B6"/>
  <outline>
    <contour>
      <point x="435" y="-10" type="curve" smooth="yes"/>
      <point x="518" y="-10"/>
      <point x="568" y="26"/>
      <point x="609" y="68" type="curve"/>
      <point x="603" y="76" type="line"/>
      <point x="566" y="42"/>
      <point x="534" y="26"/>
      <point x="512" y="26" type="curve" smooth="yes"/>
      <point x="489" y="26"/>
      <point x="476" y="42"/>
      <point x="476" y="69" type="curve" smooth="yes"/>
      <point x="476" y="89"/>
      <point x="479" y="111"/>
      <point x="486" y="144" type="curve" smooth="yes"/>
      <point x="570" y="526" type="line"/>
      <point x="670" y="526" type="line"/>
      <point x="672" y="536" type="line"/>
      <point x="572" y="536" type="line"/>
      <point x="599" y="659" type="line"/>
      <point x="430" y="659" type="line"/>
      <point x="403" y="536" type="line"/>
      <point x="302" y="536" type="line"/>
      <point x="329" y="659" type="line"/>
      <point x="160" y="659" type="line"/>
      <point x="133" y="536" type="line"/>
      <point x="69" y="536" type="line"/>
      <point x="67" y="526" type="line"/>
      <point x="131" y="526" type="line"/>
      <point x="16" y="0" type="line"/>
      <point x="185" y="0" type="line"/>
      <point x="300" y="526" type="line"/>
      <point x="401" y="526" type="line"/>
      <point x="328" y="191" type="line" smooth="yes"/>
      <point x="322" y="164"/>
      <point x="317" y="127"/>
      <point x="317" y="103" type="curve" smooth="yes"/>
      <point x="317" y="28"/>
      <point x="372" y="-10"/>
    </contour>
  </outline>
</glyph>
<glyph name="lbbarsymbol" format="2">
  <advance width="632"/>
  <unicode hex="2114"/>
  <outline>
    <contour>
      <point x="263" y="-12" type="curve" smooth="yes"/>
      <point x="298" y="-12"/>
      <point x="325" y="-1"/>
      <point x="353" y="18" type="curve"/>
      <point x="372" y="-1"/>
      <point x="400" y="-12"/>
      <point x="437" y="-12" type="curve" smooth="yes"/>
      <point x="539" y="-12"/>
      <point x="585" y="74"/>
      <point x="585" y="153" type="curve" smooth="yes"/>
      <point x="585" y="234"/>
      <point x="537" y="275"/>
      <point x="452" y="305" type="curve"/>
      <point x="494" y="538" type="line"/>
      <point x="393" y="538" type="line"/>
      <point x="357" y="338" type="line"/>
      <point x="337" y="344"/>
      <point x="316" y="350"/>
      <point x="296" y="356" type="curve"/>
      <point x="329" y="538" type="line"/>
      <point x="229" y="538" type="line"/>
      <point x="204" y="397" type="line"/>
      <point x="172" y="415"/>
      <point x="165" y="460"/>
      <point x="165" y="509" type="curve" smooth="yes"/>
      <point x="165" y="659"/>
      <point x="233" y="716"/>
      <point x="338" y="716" type="curve" smooth="yes"/>
      <point x="424" y="716"/>
      <point x="505" y="679"/>
      <point x="537" y="562" type="curve"/>
      <point x="569" y="566"/>
      <point x="578" y="581"/>
      <point x="578" y="598" type="curve" smooth="yes"/>
      <point x="578" y="628"/>
      <point x="552" y="657"/>
      <point x="517" y="680" type="curve" smooth="yes"/>
      <point x="469" y="711"/>
      <point x="412" y="726"/>
      <point x="343" y="726" type="curve" smooth="yes"/>
      <point x="193" y="726"/>
      <point x="90" y="658"/>
      <point x="90" y="535" type="curve" smooth="yes"/>
      <point x="90" y="481"/>
      <point x="110" y="419"/>
      <point x="201" y="381" type="curve"/>
      <point x="167" y="191" type="line" smooth="yes"/>
      <point x="163" y="166"/>
      <point x="157" y="129"/>
      <point x="157" y="101" type="curve" smooth="yes"/>
      <point x="157" y="25"/>
      <point x="200" y="-12"/>
    </contour>
    <contour>
      <point x="290" y="6" type="curve" smooth="yes"/>
      <point x="260" y="6"/>
      <point x="248" y="28"/>
      <point x="248" y="66" type="curve" smooth="yes"/>
      <point x="248" y="87"/>
      <point x="252" y="113"/>
      <point x="257" y="142" type="curve" smooth="yes"/>
      <point x="294" y="345" type="line"/>
      <point x="310" y="341"/>
      <point x="337" y="333"/>
      <point x="355" y="327" type="curve"/>
      <point x="331" y="191" type="line" smooth="yes"/>
      <point x="327" y="166"/>
      <point x="321" y="130"/>
      <point x="321" y="104" type="curve" smooth="yes"/>
      <point x="321" y="73"/>
      <point x="330" y="45"/>
      <point x="346" y="25" type="curve"/>
      <point x="324" y="11"/>
      <point x="305" y="6"/>
    </contour>
    <contour>
      <point x="446" y="-2" type="curve" smooth="yes"/>
      <point x="425" y="-2"/>
      <point x="412" y="13"/>
      <point x="412" y="55" type="curve" smooth="yes"/>
      <point x="412" y="78"/>
      <point x="416" y="106"/>
      <point x="422" y="138" type="curve" smooth="yes"/>
      <point x="450" y="293" type="line"/>
      <point x="489" y="274"/>
      <point x="509" y="226"/>
      <point x="509" y="154" type="curve" smooth="yes"/>
      <point x="509" y="61"/>
      <point x="478" y="-2"/>
    </contour>
  </outline>
</glyph>
<glyph name="Mhook" format="2">
  <advance width="843"/>
  <unicode hex="2C6E"/>
  <anchor x="284" y="-240" name="bottom"/>
  <anchor x="487" y="714" name="top"/>
  <outline>
    <contour>
      <point x="314" y="-240" type="line"/>
      <point x="369" y="-240" type="line" smooth="yes"/>
      <point x="498" y="-240"/>
      <point x="622" y="-179"/>
      <point x="660" y="-1" type="curve" smooth="yes"/>
      <point x="797" y="647" type="line" smooth="yes"/>
      <point x="808" y="697"/>
      <point x="840" y="704"/>
      <point x="874" y="704" type="curve" smooth="yes"/>
      <point x="884" y="704" type="line"/>
      <point x="886" y="714" type="line"/>
      <point x="640" y="714" type="line"/>
      <point x="427" y="214" type="line"/>
      <point x="395" y="714" type="line"/>
      <point x="129" y="714" type="line"/>
      <point x="126" y="704" type="line"/>
      <point x="159" y="704" type="line" smooth="yes"/>
      <point x="193" y="704"/>
      <point x="216" y="700"/>
      <point x="216" y="677" type="curve" smooth="yes"/>
      <point x="216" y="668"/>
      <point x="214" y="660"/>
      <point x="209" y="636" type="curve" smooth="yes"/>
      <point x="92" y="67" type="line" smooth="yes"/>
      <point x="82" y="18"/>
      <point x="50" y="10"/>
      <point x="17" y="10" type="curve" smooth="yes"/>
      <point x="-20" y="10" type="line"/>
      <point x="-21" y="0" type="line"/>
      <point x="186" y="0" type="line"/>
      <point x="188" y="10" type="line"/>
      <point x="150" y="10" type="line" smooth="yes"/>
      <point x="123" y="10"/>
      <point x="99" y="14"/>
      <point x="99" y="40" type="curve" smooth="yes"/>
      <point x="99" y="46"/>
      <point x="101" y="56"/>
      <point x="105" y="74" type="curve" smooth="yes"/>
      <point x="228" y="677" type="line"/>
      <point x="282" y="0" type="line"/>
      <point x="349" y="0" type="line"/>
      <point x="638" y="677" type="line"/>
      <point x="493" y="-1" type="line" smooth="yes"/>
      <point x="454" y="-182"/>
      <point x="417" y="-230"/>
      <point x="364" y="-230" type="curve" smooth="yes"/>
      <point x="316" y="-230" type="line"/>
    </contour>
  </outline>
</glyph>
<glyph name="tildedotbelow" format="2">
  <advance width="573"/>
  <unicode hex="2E1F"/>
  <outline>
    <contour>
      <point x="90" y="287" type="line"/>
      <point x="119" y="320"/>
      <point x="160" y="346"/>
      <point x="194" y="346" type="curve" smooth="yes"/>
      <point x="220" y="346"/>
      <point x="246" y="340"/>
      <point x="289" y="319" type="curve" smooth="yes"/>
      <point x="344" y="292"/>
      <point x="375" y="287"/>
      <point x="410" y="287" type="curve" smooth="yes"/>
      <point x="453" y="287"/>
      <point x="490" y="306"/>
      <point x="519" y="341" type="curve"/>
      <point x="519" y="418" type="line"/>
      <point x="490" y="385"/>
      <point x="450" y="359"/>
      <point x="414" y="359" type="curve" smooth="yes"/>
      <point x="389" y="359"/>
      <point x="363" y="364"/>
      <point x="320" y="386" type="curve" smooth="yes"/>
      <point x="265" y="414"/>
      <point x="234" y="418"/>
      <point x="199" y="418" type="curve" smooth="yes"/>
      <point x="156" y="418"/>
      <point x="119" y="400"/>
      <point x="90" y="365" type="curve"/>
    </contour>
    <contour>
      <point x="304" y="121" type="curve" smooth="yes"/>
      <point x="328" y="121"/>
      <point x="347" y="139"/>
      <point x="347" y="182" type="curve" smooth="yes"/>
      <point x="347" y="227"/>
      <point x="328" y="242"/>
      <point x="304" y="242" type="curve" smooth="yes"/>
      <point x="279" y="242"/>
      <point x="260" y="227"/>
      <point x="260" y="182" type="curve" smooth="yes"/>
      <point x="260" y="139"/>
      <point x="279" y="121"/>
    </contour>
  </outline>
</glyph>
<glyph name="daggerwithleftguard" format="2">
  <advance width="413"/>
  <unicode hex="2E36"/>
  <outline>
    <contour>
      <point x="140" y="-111" type="curve"/>
      <point x="150" y="-111" type="line"/>
      <point x="211" y="163"/>
      <point x="262" y="279"/>
      <point x="308" y="360" type="curve"/>
      <point x="278" y="515" type="line"/>
      <point x="386" y="760" type="line"/>
      <point x="263" y="760" type="line"/>
      <point x="271" y="520" type="line"/>
      <point x="109" y="583" type="line"/>
      <point x="79" y="445" type="line"/>
      <point x="269" y="510" type="line"/>
      <point x="172" y="360" type="line"/>
      <point x="185" y="251"/>
      <point x="189" y="163"/>
    </contour>
  </outline>
</glyph>
<glyph name="threeemdash" format="2">
  <advance width="2483"/>
  <unicode hex="2E3B"/>
  <outline>
    <contour>
      <point x="47" y="266" type="line"/>
      <point x="2439" y="266" type="line"/>
      <point x="2439" y="286" type="line"/>
      <point x="47" y="286" type="line"/>
    </contour>
  </outline>
</glyph>
<glyph name="uniA685" format="2">
  <advance width="1004"/>
  <unicode hex="A685"/>
  <anchor x="172" y="0" name="bottom_1"/>
  <anchor x="683" y="0" name="bottom_2"/>
  <anchor x="286" y="536" name="top_1"/>
  <anchor x="797" y="536" name="top_2"/>
  <outline>
    <contour>
      <point x="249" y="276" type="line"/>
      <point x="602" y="276" type="line"/>
      <point x="602" y="286" type="line"/>
      <point x="252" y="286" type="line"/>
    </contour>
    <component base="afii10073"/>
    <component base="afii10076" xOffset="458"/>
  </outline>
</glyph>
<glyph name="uniA74A" format="2">
  <advance width="699"/>
  <unicode hex="A74A"/>
  <anchor x="250" y="0" name="bottom"/>
  <anchor x="345" y="357" name="center"/>
  <anchor x="402" y="714" name="top"/>
  <anchor x="724" y="714" name="topright"/>
  <outline>
    <contour>
      <point x="13" y="368" type="line"/>
      <point x="715" y="368" type="line"/>
      <point x="717" y="378" type="line"/>
      <point x="15" y="378" type="line"/>
    </contour>
    <component base="O" xOffset="-19"/>
  </outline>
</glyph>
<glyph name="uniA765" format="2">
  <advance width="565"/>
  <unicode hex="A765"/>
  <anchor x="167" y="-240" name="bottom"/>
  <anchor x="380" y="760" name="top"/>
  <outline>
    <contour>
      <point x="83" y="601" type="line"/>
      <point x="377" y="601" type="line"/>
      <point x="379" y="611" type="line"/>
      <point x="85" y="611" type="line"/>
    </contour>
    <component base="thorn" xOffset="-2"/>
  </outline>
</glyph>
<glyph name="uniA7A2" format="2">
  <advance width="654"/>
  <unicode hex="A7A2"/>
  <anchor x="255" y="0" name="bottom"/>
  <anchor x="407" y="714" name="top"/>
  <anchor x="680" y="714" name="topright"/>
  <outline>
    <contour>
      <point x="-1" y="145" type="line"/>
      <point x="629" y="280" type="line"/>
      <point x="631" y="291" type="line"/>
      <point x="1" y="156" type="line"/>
    </contour>
    <component base="K" xOffset="-6"/>
  </outline>
</glyph>
<glyph name="uniA7A5" format="2">
  <advance width="609"/>
  <unicode hex="A7A5"/>
  <anchor x="250" y="0" name="bottom"/>
  <anchor x="354" y="536" name="top"/>
  <anchor x="650" y="536" name="topright"/>
  <outline>
    <contour>
      <point x="-22" y="119" type="line"/>
      <point x="622" y="335" type="line"/>
      <point x="625" y="347" type="line"/>
      <point x="-19" y="131" type="line"/>
    </contour>
    <component base="n" xOffset="-2"/>
  </outline>
</glyph>
<glyph name="uniAB42" format="2">
  <advance width="832"/>
  <unicode hex="AB42"/>
  <anchor x="472" y="536" name="bottom"/>
  <anchor x="371" y="0" name="top"/>
  <outline>
    <contour>
      <point x="420" y="278" type="line"/>
      <point x="675" y="278" type="line"/>
      <point x="675" y="288" type="line"/>
      <point x="420" y="288" type="line"/>
    </contour>
    <component base="oe" xScale="-1" yScale="-1" xOffset="835" yOffset="536"/>
  </outline>
</glyph>
<glyph name="s_t" format="2">
  <advance width="817"/>
  <unicode hex="FB06"/>
  <anchor x="172" y="0" name="bottom"/>
  <anchor x="683" y="268" name="center"/>
  <anchor x="286" y="536" name="top"/>
  <anchor x="874" y="659" name="topright"/>
  <outline>
    <contour>
      <point x="611" y="-10" type="curve" smooth="yes"/>
      <point x="694" y="-10"/>
      <point x="744" y="26"/>
      <point x="784" y="66" type="curve"/>
      <point x="779" y="75" type="line"/>
      <point x="752" y="46"/>
      <point x="713" y="22"/>
      <point x="687" y="22" type="curve" smooth="yes"/>
      <point x="657" y="22"/>
      <point x="646" y="38"/>
      <point x="646" y="66" type="curve" smooth="yes"/>
      <point x="646" y="89"/>
      <point x="650" y="109"/>
      <point x="656" y="134" type="curve" smooth="yes"/>
      <point x="744" y="526" type="line"/>
      <point x="845" y="526" type="line"/>
      <point x="847" y="536" type="line"/>
      <point x="747" y="536" type="line"/>
      <point x="754" y="570" type="line" smooth="yes"/>
      <point x="760" y="600"/>
      <point x="761" y="619"/>
      <point x="761" y="629" type="curve" smooth="yes"/>
      <point x="761" y="708"/>
      <point x="694" y="770"/>
      <point x="550" y="770" type="curve" smooth="yes"/>
      <point x="411" y="770"/>
      <point x="312" y="705"/>
      <point x="312" y="580" type="curve" smooth="yes"/>
      <point x="312" y="525"/>
      <point x="337" y="479"/>
      <point x="354" y="450" type="curve"/>
      <point x="453" y="450" type="line"/>
      <point x="453" y="500"/>
      <point x="439" y="529"/>
      <point x="439" y="602" type="curve" smooth="yes"/>
      <point x="439" y="712"/>
      <point x="476" y="760"/>
      <point x="537" y="760" type="curve" smooth="yes"/>
      <point x="595" y="760"/>
      <point x="611" y="720"/>
      <point x="611" y="666" type="curve" smooth="yes"/>
      <point x="611" y="616"/>
      <point x="599" y="578"/>
      <point x="579" y="556" type="curve" smooth="yes"/>
      <point x="560" y="537"/>
      <point x="537" y="532"/>
      <point x="498" y="532" type="curve"/>
      <point x="497" y="526" type="line"/>
      <point x="575" y="526" type="line"/>
      <point x="502" y="191" type="line" smooth="yes"/>
      <point x="497" y="166"/>
      <point x="492" y="133"/>
      <point x="492" y="109" type="curve" smooth="yes"/>
      <point x="492" y="30"/>
      <point x="547" y="-10"/>
    </contour>
    <contour>
      <point x="189" y="-10" type="curve" smooth="yes"/>
      <point x="342" y="-10"/>
      <point x="415" y="70"/>
      <point x="415" y="173" type="curve" smooth="yes"/>
      <point x="415" y="253"/>
      <point x="378" y="289"/>
      <point x="294" y="339" type="curve" smooth="yes"/>
      <point x="224" y="381"/>
      <point x="200" y="403"/>
      <point x="200" y="447" type="curve" smooth="yes"/>
      <point x="200" y="502"/>
      <point x="231" y="536"/>
      <point x="268" y="536" type="curve" smooth="yes"/>
      <point x="313" y="536"/>
      <point x="330" y="501"/>
      <point x="331" y="426" type="curve" smooth="yes"/>
      <point x="331" y="409"/>
      <point x="330" y="389"/>
      <point x="328" y="367" type="curve"/>
      <point x="405" y="367"/>
      <point x="453" y="389"/>
      <point x="453" y="450" type="curve" smooth="yes"/>
      <point x="453" y="501"/>
      <point x="418" y="546"/>
      <point x="283" y="546" type="curve" smooth="yes"/>
      <point x="144" y="546"/>
      <point x="71" y="477"/>
      <point x="71" y="379" type="curve" smooth="yes"/>
      <point x="71" y="303"/>
      <point x="114" y="256"/>
      <point x="190" y="211" type="curve" smooth="yes"/>
      <point x="265" y="167"/>
      <point x="293" y="141"/>
      <point x="293" y="87" type="curve" smooth="yes"/>
      <point x="293" y="35"/>
      <point x="264" y="0"/>
      <point x="220" y="0" type="curve" smooth="yes"/>
      <point x="169" y="0"/>
      <point x="130" y="36"/>
      <point x="130" y="155" type="curve" smooth="yes"/>
      <point x="130" y="168"/>
      <point x="130" y="182"/>
      <point x="131" y="197" type="curve"/>
      <point x="61" y="197"/>
      <point x="11" y="165"/>
      <point x="11" y="102" type="curve" smooth="yes"/>
      <point x="11" y="30"/>
      <point x="81" y="-10"/>
    </contour>
  </outline>
</glyph>
<glyph name="uniFE21" format="2">
  <unicode hex="FE21"/>
  <anchor x="57" y="536" name="_top"/>
  <outline>
    <contour>
      <point x="368" y="593" type="curve"/>
      <point x="378" y="593" type="line"/>
      <point x="358" y="725"/>
      <point x="260" y="805"/>
      <point x="118" y="805" type="curve"/>
      <point x="94" y="715" type="line"/>
      <point x="261" y="715"/>
      <point x="317" y="694"/>
    </contour>
  </outline>
</glyph>
<glyph name="uniFE22" format="2">
  <unicode hex="FE22"/>
  <anchor x="57" y="536" name="_top"/>
  <outline>
    <contour>
      <point x="-245" y="593" type="curve"/>
      <point x="-235" y="593" type="line"/>
      <point x="-197" y="646"/>
      <point x="-154" y="669"/>
      <point x="-86" y="669" type="curve" smooth="yes"/>
      <point x="2" y="669"/>
      <point x="42" y="645"/>
      <point x="78" y="630" type="curve"/>
      <point x="95" y="712" type="line"/>
      <point x="51" y="729"/>
      <point x="-7" y="742"/>
      <point x="-56" y="742" type="curve" smooth="yes"/>
      <point x="-155" y="742"/>
      <point x="-208" y="669"/>
    </contour>
  </outline>
</glyph>
<glyph name="uniFE2B" format="2">
  <unicode hex="FE2B"/>
  <anchor x="-57" y="0" name="_bottom"/>
  <outline>
    <contour>
      <point x="-95" y="-182" type="line"/>
      <point x="231" y="-182" type="line"/>
      <point x="236" y="-162" type="line"/>
      <point x="-91" y="-162" type="line"/>
    </contour>
  </outline>
</glyph>
<glyph name="a.sc" format="2">
  <advance width="592"/>
  <anchor x="206" y="0" name="bottom"/>
  <anchor x="337" y="571" name="top"/>
  <anchor x="563" y="571" name="topright"/>
  <outline>
    <contour>
      <point x="-45" y="0" type="line"/>
      <point x="110" y="0" type="line"/>
      <point x="112" y="10" type="line"/>
      <point x="56" y="10" type="line" smooth="yes"/>
      <point x="43" y="10"/>
      <point x="36" y="15"/>
      <point x="36" y="26" type="curve" smooth="yes"/>
      <point x="36" y="40"/>
      <point x="50" y="69"/>
      <point x="58" y="83" type="curve" smooth="yes"/>
      <point x="226" y="393" type="line" smooth="yes"/>
      <point x="257" y="451"/>
      <point x="264" y="464"/>
      <point x="290" y="514" type="curve"/>
      <point x="290" y="470"/>
      <point x="290" y="432"/>
      <point x="293" y="393" type="curve" smooth="yes"/>
      <point x="313" y="82" type="line" smooth="yes"/>
      <point x="313" y="75"/>
      <point x="314" y="68"/>
      <point x="314" y="62" type="curve" smooth="yes"/>
      <point x="314" y="27"/>
      <point x="305" y="10"/>
      <point x="271" y="10" type="curve" smooth="yes"/>
      <point x="237" y="10" type="line"/>
      <point x="235" y="0" type="line"/>
      <point x="522" y="0" type="line"/>
      <point x="524" y="10" type="line"/>
      <point x="522" y="10" type="line" smooth="yes"/>
      <point x="500" y="10"/>
      <point x="486" y="21"/>
      <point x="483" y="58" type="curve" smooth="yes"/>
      <point x="435" y="571" type="line"/>
      <point x="311" y="571" type="line"/>
      <point x="34" y="60" type="line" smooth="yes"/>
      <point x="11" y="17"/>
      <point x="-8" y="10"/>
      <point x="-35" y="10" type="curve" smooth="yes"/>
      <point x="-43" y="10" type="line"/>
    </contour>
    <contour>
      <point x="124" y="210" type="line"/>
      <point x="308" y="210" type="line"/>
      <point x="308" y="220" type="line"/>
      <point x="124" y="220" type="line"/>
    </contour>
  </outline>
</glyph>
<glyph name="a.ss01" format="2">
  <advance width="557"/>
  <anchor x="230" y="0" name="bottom"/>
  <anchor x="324" y="536" name="top"/>
  <anchor x="627" y="536" name="topright"/>
  <outline>
    <contour>
      <point x="144" y="-10" type="curve" smooth="yes"/>
      <point x="212" y="-10"/>
      <point x="245" y="18"/>
      <point x="268" y="65" type="curve"/>
      <point x="273" y="65" type="line"/>
      <point x="299" y="16"/>
      <point x="334" y="-10"/>
      <point x="397" y="-10" type="curve" smooth="yes"/>
      <point x="461" y="-10"/>
      <point x="482" y="16"/>
      <point x="499" y="38" type="curve"/>
      <point x="494" y="46" type="line"/>
      <point x="478" y="26"/>
      <point x="465" y="13"/>
      <point x="449" y="13" type="curve" smooth="yes"/>
      <point x="434" y="13"/>
      <point x="427" y="26"/>
      <point x="427" y="45" type="curve" smooth="yes"/>
      <point x="427" y="52"/>
      <point x="428" y="58"/>
      <point x="429" y="63" type="curve" smooth="yes"/>
      <point x="493" y="365" type="line" smooth="yes"/>
      <point x="497" y="385"/>
      <point x="499" y="408"/>
      <point x="499" y="424" type="curve" smooth="yes"/>
      <point x="499" y="520"/>
      <point x="427" y="551"/>
      <point x="325" y="551" type="curve" smooth="yes"/>
      <point x="222" y="551"/>
      <point x="121" y="520"/>
      <point x="121" y="444" type="curve" smooth="yes"/>
      <point x="121" y="395"/>
      <point x="161" y="379"/>
      <point x="252" y="379" type="curve"/>
      <point x="278" y="520"/>
      <point x="302" y="541"/>
      <point x="326" y="541" type="curve" smooth="yes"/>
      <point x="351" y="541"/>
      <point x="353" y="519"/>
      <point x="353" y="510" type="curve" smooth="yes"/>
      <point x="353" y="487"/>
      <point x="339" y="417"/>
      <point x="333" y="388" type="curve" smooth="yes"/>
      <point x="317" y="306" type="line"/>
      <point x="241" y="303" type="line" smooth="yes"/>
      <point x="121" y="298"/>
      <point x="23" y="254"/>
      <point x="23" y="124" type="curve" smooth="yes"/>
      <point x="23" y="23"/>
      <point x="70" y="-10"/>
    </contour>
    <contour>
      <point x="218" y="30" type="curve" smooth="yes"/>
      <point x="197" y="30"/>
      <point x="193" y="52"/>
      <point x="193" y="88" type="curve" smooth="yes"/>
      <point x="193" y="200"/>
      <point x="232" y="289"/>
      <point x="289" y="294" type="curve" smooth="yes"/>
      <point x="314" y="296" type="line"/>
      <point x="284" y="150" type="line" smooth="yes"/>
      <point x="272" y="90"/>
      <point x="253" y="30"/>
    </contour>
  </outline>
</glyph>
<glyph name="caroncommaaccent" format="2">
  <advance width="408"/>
  <anchor x="144" y="536" name="_topright"/>
  <outline>
    <contour>
      <point x="204" y="600" type="line"/>
      <point x="217" y="600" type="line"/>
      <point x="266" y="639"/>
      <point x="332" y="709"/>
      <point x="372" y="750" type="curve"/>
      <point x="375" y="760" type="line"/>
      <point x="243" y="760" type="line"/>
      <point x="232" y="709"/>
      <point x="223" y="665"/>
      <point x="206" y="609" type="curve"/>
    </contour>
  </outline>
</glyph>
<glyph name="cyrillicbreve" format="2">
  <advance width="471"/>
  <outline>
    <contour>
      <point x="319" y="606" type="curve" smooth="yes"/>
      <point x="443" y="606"/>
      <point x="501" y="694"/>
      <point x="545" y="759" type="curve"/>
      <point x="536" y="768" type="line"/>
      <point x="495" y="703"/>
      <point x="437" y="626"/>
      <point x="339" y="626" type="curve" smooth="yes"/>
      <point x="301" y="626"/>
      <point x="277" y="652"/>
      <point x="277" y="708" type="curve" smooth="yes"/>
      <point x="277" y="730"/>
      <point x="281" y="754"/>
      <point x="291" y="778" type="curve"/>
      <point x="173" y="767" type="line"/>
      <point x="166" y="751"/>
      <point x="162" y="736"/>
      <point x="162" y="719" type="curve" smooth="yes"/>
      <point x="162" y="660"/>
      <point x="194" y="606"/>
    </contour>
  </outline>
</glyph>
<glyph name="g.sc" format="2">
  <advance width="605"/>
  <anchor x="253" y="0" name="bottom"/>
  <anchor x="383" y="571" name="top"/>
  <anchor x="637" y="571" name="topright"/>
  <outline>
    <contour>
      <point x="261" y="-8" type="curve" smooth="yes"/>
      <point x="328" y="-8"/>
      <point x="394" y="9"/>
      <point x="465" y="40" type="curve"/>
      <point x="500" y="204" type="line" smooth="yes"/>
      <point x="509" y="246"/>
      <point x="516" y="266"/>
      <point x="547" y="266" type="curve" smooth="yes"/>
      <point x="579" y="266" type="line"/>
      <point x="581" y="276" type="line"/>
      <point x="282" y="276" type="line"/>
      <point x="280" y="266" type="line"/>
      <point x="305" y="266" type="line" smooth="yes"/>
      <point x="329" y="266"/>
      <point x="338" y="256"/>
      <point x="338" y="238" type="curve" smooth="yes"/>
      <point x="338" y="229"/>
      <point x="336" y="219"/>
      <point x="327" y="176" type="curve" smooth="yes"/>
      <point x="290" y="6" type="line"/>
      <point x="284" y="4"/>
      <point x="279" y="2"/>
      <point x="272" y="2" type="curve" smooth="yes"/>
      <point x="220" y="2"/>
      <point x="194" y="33"/>
      <point x="194" y="110" type="curve" smooth="yes"/>
      <point x="194" y="271"/>
      <point x="263" y="568"/>
      <point x="372" y="568" type="curve" smooth="yes"/>
      <point x="407" y="568"/>
      <point x="426" y="547"/>
      <point x="426" y="388" type="curve"/>
      <point x="518" y="388"/>
      <point x="575" y="423"/>
      <point x="575" y="479" type="curve" smooth="yes"/>
      <point x="575" y="523"/>
      <point x="523" y="579"/>
      <point x="388" y="579" type="curve" smooth="yes"/>
      <point x="179" y="579"/>
      <point x="35" y="412"/>
      <point x="35" y="197" type="curve" smooth="yes"/>
      <point x="35" y="72"/>
      <point x="106" y="-8"/>
    </contour>
  </outline>
</glyph>
<glyph name="j.sc" format="2">
  <advance width="345"/>
  <anchor x="-16" y="-191" name="bottom"/>
  <anchor x="235" y="571" name="top"/>
  <anchor x="406" y="571" name="topright"/>
  <outline>
    <contour>
      <point x="-69" y="-192" type="curve" smooth="yes"/>
      <point x="69" y="-192"/>
      <point x="171" y="-145"/>
      <point x="208" y="29" type="curve" smooth="yes"/>
      <point x="309" y="506" type="line" smooth="yes"/>
      <point x="317" y="544"/>
      <point x="327" y="561"/>
      <point x="358" y="561" type="curve" smooth="yes"/>
      <point x="387" y="561" type="line"/>
      <point x="389" y="571" type="line"/>
      <point x="88" y="571" type="line"/>
      <point x="86" y="561" type="line"/>
      <point x="118" y="561" type="line" smooth="yes"/>
      <point x="138" y="561"/>
      <point x="145" y="553"/>
      <point x="145" y="536" type="curve" smooth="yes"/>
      <point x="145" y="528"/>
      <point x="144" y="519"/>
      <point x="141" y="507" type="curve" smooth="yes"/>
      <point x="24" y="-46" type="line" smooth="yes"/>
      <point x="2" y="-148"/>
      <point x="-28" y="-182"/>
      <point x="-88" y="-182" type="curve" smooth="yes"/>
      <point x="-106" y="-182"/>
      <point x="-125" y="-180"/>
      <point x="-137" y="-177" type="curve"/>
      <point x="-139" y="-187" type="line"/>
      <point x="-124" y="-190"/>
      <point x="-97" y="-192"/>
    </contour>
  </outline>
</glyph>
<glyph name="k.sc" format="2">
  <advance width="601"/>
  <anchor x="217" y="0" name="bottom"/>
  <anchor x="339" y="571" name="top"/>
  <anchor x="601" y="571" name="topright"/>
  <outline>
    <contour>
      <point x="-22" y="0" type="line"/>
      <point x="259" y="0" type="line"/>
      <point x="261" y="10" type="line"/>
      <point x="240" y="10" type="line" smooth="yes"/>
      <point x="224" y="10"/>
      <point x="218" y="16"/>
      <point x="218" y="30" type="curve" smooth="yes"/>
      <point x="218" y="37"/>
      <point x="220" y="45"/>
      <point x="222" y="56" type="curve" smooth="yes"/>
      <point x="264" y="251" type="line"/>
      <point x="304" y="287" type="line"/>
      <point x="258" y="253" type="line"/>
      <point x="301" y="110" type="line" smooth="yes"/>
      <point x="326" y="28"/>
      <point x="339" y="0"/>
      <point x="462" y="0" type="curve" smooth="yes"/>
      <point x="544" y="0" type="line"/>
      <point x="546" y="10" type="line"/>
      <point x="544" y="10" type="line" smooth="yes"/>
      <point x="522" y="10"/>
      <point x="514" y="26"/>
      <point x="482" y="120" type="curve" smooth="yes"/>
      <point x="395" y="376" type="line"/>
      <point x="362" y="337" type="line"/>
      <point x="536" y="499" type="line" smooth="yes"/>
      <point x="587" y="546"/>
      <point x="618" y="561"/>
      <point x="643" y="561" type="curve"/>
      <point x="645" y="571" type="line"/>
      <point x="468" y="571" type="line"/>
      <point x="466" y="561" type="line"/>
      <point x="514" y="561"/>
      <point x="537" y="554"/>
      <point x="537" y="537" type="curve" smooth="yes"/>
      <point x="537" y="521"/>
      <point x="516" y="497"/>
      <point x="477" y="460" type="curve" smooth="yes"/>
      <point x="266" y="262" type="line"/>
      <point x="320" y="516" type="line" smooth="yes"/>
      <point x="326" y="544"/>
      <point x="337" y="561"/>
      <point x="359" y="561" type="curve" smooth="yes"/>
      <point x="379" y="561" type="line"/>
      <point x="381" y="571" type="line"/>
      <point x="100" y="571" type="line"/>
      <point x="98" y="561" type="line"/>
      <point x="133" y="561" type="line" smooth="yes"/>
      <point x="147" y="561"/>
      <point x="155" y="554"/>
      <point x="155" y="536" type="curve" smooth="yes"/>
      <point x="155" y="531"/>
      <point x="154" y="525"/>
      <point x="152" y="517" type="curve" smooth="yes"/>
      <point x="54" y="53" type="line" smooth="yes"/>
      <point x="48" y="25"/>
      <point x="33" y="10"/>
      <point x="7" y="10" type="curve" smooth="yes"/>
      <point x="-20" y="10" type="line"/>
    </contour>
  </outline>
</glyph>
<glyph name="oe.sc" format="2">
  <advance width="768"/>
  <anchor x="303" y="0" name="bottom"/>
  <anchor x="425" y="571" name="top"/>
  <outline>
    <contour>
      <point x="226" y="-8" type="curve" smooth="yes"/>
      <point x="252" y="-8"/>
      <point x="275" y="-5"/>
      <point x="296" y="0" type="curve"/>
      <point x="681" y="0" type="line"/>
      <point x="719" y="153" type="line"/>
      <point x="709" y="153" type="line"/>
      <point x="699" y="119" type="line" smooth="yes"/>
      <point x="675" y="36"/>
      <point x="639" y="10"/>
      <point x="555" y="10" type="curve" smooth="yes"/>
      <point x="474" y="10" type="line"/>
      <point x="534" y="293" type="line"/>
      <point x="674" y="293" type="line"/>
      <point x="677" y="303" type="line"/>
      <point x="537" y="303" type="line"/>
      <point x="591" y="561" type="line"/>
      <point x="650" y="561" type="line" smooth="yes"/>
      <point x="720" y="561"/>
      <point x="747" y="542"/>
      <point x="747" y="484" type="curve" smooth="yes"/>
      <point x="747" y="475"/>
      <point x="746" y="463"/>
      <point x="741" y="418" type="curve"/>
      <point x="751" y="418" type="line"/>
      <point x="782" y="571" type="line"/>
      <point x="423" y="571" type="line"/>
      <point x="402" y="577"/>
      <point x="377" y="580"/>
      <point x="351" y="580" type="curve" smooth="yes"/>
      <point x="183" y="580"/>
      <point x="55" y="400"/>
      <point x="55" y="195" type="curve" smooth="yes"/>
      <point x="55" y="70"/>
      <point x="121" y="-8"/>
    </contour>
    <contour>
      <point x="262" y="5" type="curve" smooth="yes"/>
      <point x="232" y="5"/>
      <point x="214" y="37"/>
      <point x="214" y="100" type="curve" smooth="yes"/>
      <point x="214" y="261"/>
      <point x="284" y="569"/>
      <point x="373" y="569" type="curve" smooth="yes"/>
      <point x="396" y="569"/>
      <point x="411" y="560"/>
      <point x="421" y="545" type="curve"/>
      <point x="311" y="25" type="line"/>
      <point x="293" y="9"/>
      <point x="276" y="5"/>
    </contour>
  </outline>
</glyph>
<glyph name="x.sc" format="2">
  <advance width="594"/>
  <anchor x="220" y="0" name="bottom"/>
  <anchor x="342" y="571" name="top"/>
  <anchor x="613" y="571" name="topright"/>
  <outline>
    <contour>
      <point x="-33" y="0" type="line"/>
      <point x="125" y="0" type="line"/>
      <point x="127" y="10" type="line"/>
      <point x="98" y="10" type="line" smooth="yes"/>
      <point x="72" y="10"/>
      <point x="59" y="15"/>
      <point x="59" y="26" type="curve" smooth="yes"/>
      <point x="59" y="37"/>
      <point x="70" y="54"/>
      <point x="92" y="80" type="curve" smooth="yes"/>
      <point x="285" y="305" type="line"/>
      <point x="236" y="254" type="line"/>
      <point x="296" y="90" type="line" smooth="yes"/>
      <point x="304" y="67"/>
      <point x="309" y="50"/>
      <point x="309" y="38" type="curve" smooth="yes"/>
      <point x="309" y="16"/>
      <point x="293" y="10"/>
      <point x="264" y="10" type="curve" smooth="yes"/>
      <point x="234" y="10" type="line"/>
      <point x="232" y="0" type="line"/>
      <point x="534" y="0" type="line"/>
      <point x="536" y="10" type="line"/>
      <point x="523" y="10" type="line" smooth="yes"/>
      <point x="510" y="10"/>
      <point x="498" y="21"/>
      <point x="484" y="60" type="curve" smooth="yes"/>
      <point x="379" y="352" type="line"/>
      <point x="334" y="293" type="line"/>
      <point x="520" y="510" type="line" smooth="yes"/>
      <point x="554" y="550"/>
      <point x="577" y="561"/>
      <point x="612" y="561" type="curve" smooth="yes"/>
      <point x="634" y="561" type="line"/>
      <point x="636" y="571" type="line"/>
      <point x="457" y="571" type="line"/>
      <point x="455" y="561" type="line"/>
      <point x="484" y="561" type="line" smooth="yes"/>
      <point x="510" y="561"/>
      <point x="523" y="556"/>
      <point x="523" y="545" type="curve" smooth="yes"/>
      <point x="523" y="534"/>
      <point x="512" y="517"/>
      <point x="491" y="492" type="curve" smooth="yes"/>
      <point x="329" y="303" type="line"/>
      <point x="380" y="348" type="line"/>
      <point x="333" y="482" type="line" smooth="yes"/>
      <point x="325" y="506"/>
      <point x="320" y="522"/>
      <point x="320" y="534" type="curve" smooth="yes"/>
      <point x="320" y="553"/>
      <point x="335" y="561"/>
      <point x="364" y="561" type="curve" smooth="yes"/>
      <point x="382" y="561" type="line"/>
      <point x="384" y="571" type="line"/>
      <point x="91" y="571" type="line"/>
      <point x="89" y="561" type="line"/>
      <point x="91" y="561" type="line" smooth="yes"/>
      <point x="116" y="561"/>
      <point x="128" y="549"/>
      <point x="143" y="509" type="curve" smooth="yes"/>
      <point x="235" y="256" type="line"/>
      <point x="282" y="316" type="line"/>
      <point x="62" y="61" type="line" smooth="yes"/>
      <point x="20" y="12"/>
      <point x="12" y="10"/>
      <point x="-19" y="10" type="curve" smooth="yes"/>
      <point x="-31" y="10" type="line"/>
    </contour>
  </outline>
</glyph>
